<?xml version="1.0" encoding="UTF-8" standalone="no"?>
<svg
   xmlns:dc="http://purl.org/dc/elements/1.1/"
   xmlns:cc="http://creativecommons.org/ns#"
   xmlns:rdf="http://www.w3.org/1999/02/22-rdf-syntax-ns#"
   xmlns:svg="http://www.w3.org/2000/svg"
   xmlns="http://www.w3.org/2000/svg"
   xmlns:sodipodi="http://sodipodi.sourceforge.net/DTD/sodipodi-0.dtd"
   xmlns:inkscape="http://www.inkscape.org/namespaces/inkscape"
   inkscape:version="1.0 (4035a4fb49, 2020-05-01)"
   sodipodi:docname="2.svg"
   version="1.1"
   id="svg2"
   xml:space="preserve"
   width="1121.9174"
   height="796.75867"
   viewBox="0 0 1121.9174 796.75864"><sodipodi:namedview
     inkscape:current-layer="g12"
     inkscape:window-maximized="1"
     inkscape:window-y="-9"
     inkscape:window-x="-9"
     inkscape:cy="353.44062"
     inkscape:cx="611.09884"
     inkscape:zoom="1.4796063"
     showgrid="false"
     id="namedview116"
     inkscape:window-height="1271"
     inkscape:window-width="2400"
     inkscape:pageshadow="2"
     inkscape:pageopacity="0"
     guidetolerance="10"
     gridtolerance="10"
     objecttolerance="10"
     borderopacity="1"
     bordercolor="#666666"
     pagecolor="#ffffff" /><metadata
     id="metadata8"><rdf:RDF><cc:Work
         rdf:about=""><dc:format>image/svg+xml</dc:format><dc:type
           rdf:resource="http://purl.org/dc/dcmitype/StillImage" /></cc:Work></rdf:RDF></metadata><defs
     id="defs6" /><g
     id="g10"
     transform="matrix(0,-1.3333333,-1.3333333,0,1121.9173,796.75865)"><g
       id="g12"
       transform="scale(0.1)"><path
         d="m 5975.69,7375.96 c -122.88,0 -204.82,0 -204.82,0 0,0 81.94,-82 204.82,-204.99 v 204.99"
         style="fill:#fab674;fill-opacity:1;fill-rule:nonzero;stroke:none"
         id="path14" /><path
         d="m 5975.69,7170.97 c -122.88,122.99 -204.82,204.99 -204.82,204.99 V 6065.75 c 0,0 81.94,0 204.82,0 v 1105.22"
         style="fill:#fbc672;fill-opacity:1;fill-rule:nonzero;stroke:none"
         id="path16" /><path
         d="m 5975.69,6065.75 c -122.88,0 -204.82,0 -204.82,0 0,0 81.94,-82.01 204.82,-204.99 v 204.99"
         style="fill:#fbe28c;fill-opacity:1;fill-rule:nonzero;stroke:none"
         id="path18" /><path
         d="m 5975.69,5860.76 c -122.88,122.98 -204.82,204.99 -204.82,204.99 V 4755.54 c 0,0 81.94,0 204.82,0 v 1105.22"
         style="fill:#fbee8e;fill-opacity:1;fill-rule:nonzero;stroke:none"
         id="path20" /><path
         d="m 5975.69,4755.54 c -122.88,0 -204.82,0 -204.82,0 0,0 81.94,-82.01 204.82,-204.99 v 204.99"
         style="fill:#faf9b0;fill-opacity:1;fill-rule:nonzero;stroke:none"
         id="path22" /><path
         d="m 5975.69,4550.55 c -122.88,122.98 -204.82,204.99 -204.82,204.99 V 3445.32 c 0,0 81.94,0 204.82,0 v 1105.23"
         style="fill:#fafab5;fill-opacity:1;fill-rule:nonzero;stroke:none"
         id="path24" /><path
         d="m 5975.69,3445.32 c -122.88,0 -204.82,0 -204.82,0 0,0 81.94,-82 204.82,-204.99 v 204.99"
         style="fill:#f0f8db;fill-opacity:1;fill-rule:nonzero;stroke:none"
         id="path26" /><path
         d="m 5975.69,3240.33 c -122.88,122.99 -204.82,204.99 -204.82,204.99 V 2135.11 c 0,0 81.94,0 204.82,0 v 1105.22"
         style="fill:#e6f5cd;fill-opacity:1;fill-rule:nonzero;stroke:none"
         id="path28" /><path
         d="m 5975.69,2135.11 c -122.88,0 -204.82,0 -204.82,0 0,0 81.94,-82.01 204.82,-204.99 v 204.99"
         style="fill:#cfead0;fill-opacity:1;fill-rule:nonzero;stroke:none"
         id="path30" /><path
         d="m 5975.69,1930.12 c -122.88,122.99 -204.82,204.99 -204.82,204.99 V 824.891 c 0,0 81.94,0 204.82,0 V 1930.12"
         style="fill:#c7dfc3;fill-opacity:1;fill-rule:nonzero;stroke:none"
         id="path32" /><path
         d="m 5975.69,824.891 c -122.88,0 -204.82,0 -204.82,0 0,0 81.94,-82 204.82,-204.993 v 204.993"
         style="fill:#b2c6c3;fill-opacity:1;fill-rule:nonzero;stroke:none"
         id="path34" /><path
         d="m 5975.69,0 c 0,296.809 0,619.898 0,619.898 -122.88,122.993 -204.82,204.993 -204.82,204.993 0,0 0,-451.879 0,-824.891 h 204.82"
         style="fill:#abb5b6;fill-opacity:1;fill-rule:nonzero;stroke:none"
         id="path36" /><path
         d="m 5975.69,7580.95 c -122.88,-122.98 -204.82,-204.99 -204.82,-204.99 0,0 81.94,0 204.82,0 v 204.99"
         style="fill:#f89d68;fill-opacity:1;fill-rule:nonzero;stroke:none"
         id="path38" /><path
         d="m 5975.69,8414.38 c -120.53,0 -204.82,0 -204.82,0 0,-383.81 0,-1038.42 0,-1038.42 0,0 81.94,82.01 204.82,204.99 v 833.43"
         style="fill:#f49159;fill-opacity:1;fill-rule:nonzero;stroke:none"
         id="path40" /><path
         d="M 4461.78,824.891 H 5770.87 V 2135.11 Z"
         style="fill:#c8d4b5;fill-opacity:1;fill-rule:nonzero;stroke:none"
         id="path42" /><path
         d="M 4461.78,2135.11 V 824.891 L 5770.87,2135.11 Z"
         style="fill:#d3d9b2;fill-opacity:1;fill-rule:nonzero;stroke:none"
         id="path44" /><path
         d="m 4733.34,8414.38 c 383.49,-383.81 1037.53,-1038.42 1037.53,-1038.42 0,0 0,654.61 0,1038.42 H 4733.34"
         style="fill:#f3864e;fill-opacity:1;fill-rule:nonzero;stroke:none"
         id="path46" /><path
         d="m 4461.78,8414.38 c 0,-383.81 0,-1038.42 0,-1038.42 h 1309.09 c 0,0 -654.04,654.61 -1037.53,1038.42 h -271.56"
         style="fill:#f68e4e;fill-opacity:1;fill-rule:nonzero;stroke:none"
         id="path48" /><path
         d="M 5770.87,7375.96 H 4461.78 L 5770.87,6065.75 Z"
         style="fill:#f9ab5f;fill-opacity:1;fill-rule:nonzero;stroke:none"
         id="path50" /><path
         d="M 4461.78,7375.96 V 6065.75 h 1309.09 z"
         style="fill:#fab65c;fill-opacity:1;fill-rule:nonzero;stroke:none"
         id="path52" /><path
         d="M 5770.87,6065.75 H 4461.78 L 5770.87,4755.54 Z"
         style="fill:#fbd675;fill-opacity:1;fill-rule:nonzero;stroke:none"
         id="path54" /><path
         d="M 4461.78,6065.75 V 4755.54 h 1309.09 z"
         style="fill:#fae077;fill-opacity:1;fill-rule:nonzero;stroke:none"
         id="path56" /><path
         d="M 4461.78,2135.11 H 5770.87 V 3445.32 Z"
         style="fill:#e7ecbf;fill-opacity:1;fill-rule:nonzero;stroke:none"
         id="path58" /><path
         d="M 4461.78,3445.32 V 2135.11 l 1309.09,1310.21 z"
         style="fill:#f1ebba;fill-opacity:1;fill-rule:nonzero;stroke:none"
         id="path60" /><path
         d="M 5770.87,4755.54 H 4461.78 L 5770.87,3445.32 Z"
         style="fill:#fdf495;fill-opacity:1;fill-rule:nonzero;stroke:none"
         id="path62" /><path
         d="M 4461.78,4755.54 V 3445.32 h 1309.09 z"
         style="fill:#faf09c;fill-opacity:1;fill-rule:nonzero;stroke:none"
         id="path64" /><path
         d="m 5770.87,0 c 0,373.012 0,824.891 0,824.891 H 4461.78 c 0,0 451.51,-451.879 824.19,-824.891 h 484.9"
         style="fill:#b5b9ac;fill-opacity:1;fill-rule:nonzero;stroke:none"
         id="path66" /><path
         d="m 5285.97,0 c -372.68,373.012 -824.19,824.891 -824.19,824.891 0,0 0,-451.879 0,-824.891 h 824.19"
         style="fill:#aca7a1;fill-opacity:1;fill-rule:nonzero;stroke:none"
         id="path68" /><path
         d="m 3424.25,8414.38 c 383.49,-383.81 1037.53,-1038.42 1037.53,-1038.42 0,0 0,654.61 0,1038.42 H 3424.25"
         style="fill:#ed6f3e;fill-opacity:1;fill-rule:nonzero;stroke:none"
         id="path70" /><path
         d="m 3152.69,8414.38 c 0,-383.81 0,-1038.42 0,-1038.42 h 1309.09 c 0,0 -654.04,654.61 -1037.53,1038.42 h -271.56"
         style="fill:#f3743d;fill-opacity:1;fill-rule:nonzero;stroke:none"
         id="path72" /><path
         d="M 4461.78,7375.96 H 3152.69 L 4461.78,6065.75 Z"
         style="fill:#f7964d;fill-opacity:1;fill-rule:nonzero;stroke:none"
         id="path74" /><path
         d="M 3152.69,7375.96 V 6065.75 h 1309.09 z"
         style="fill:#f89d4c;fill-opacity:1;fill-rule:nonzero;stroke:none"
         id="path76" /><path
         d="M 4461.78,6065.75 H 3152.69 L 4461.78,4755.54 Z"
         style="fill:#fbc260;fill-opacity:1;fill-rule:nonzero;stroke:none"
         id="path78" /><path
         d="M 3152.69,6065.75 V 4755.54 h 1309.09 z"
         style="fill:#fbc664;fill-opacity:1;fill-rule:nonzero;stroke:none"
         id="path80" /><path
         d="M 4461.78,4755.54 H 3152.69 L 4461.78,3445.32 Z"
         style="fill:#fcde80;fill-opacity:1;fill-rule:nonzero;stroke:none"
         id="path82" /><path
         d="M 3152.69,4755.54 V 3445.32 h 1309.09 z"
         style="fill:#fcd787;fill-opacity:1;fill-rule:nonzero;stroke:none"
         id="path84" /><path
         d="M 4461.78,3445.32 H 3152.69 L 4461.78,2135.11 Z"
         style="fill:#f3daac;fill-opacity:1;fill-rule:nonzero;stroke:none"
         id="path86" /><path
         d="M 3152.69,3445.32 V 2135.11 h 1309.09 z"
         style="fill:#ebcea3;fill-opacity:1;fill-rule:nonzero;stroke:none"
         id="path88" /><path
         d="m 4461.78,0 c 0,373.012 0,824.891 0,824.891 0,0 -451.5,-451.879 -824.19,-824.891 h 824.19"
         style="fill:#ae9793;fill-opacity:1;fill-rule:nonzero;stroke:none"
         id="path90" /><path
         d="m 3637.59,0 c 372.69,373.012 824.19,824.891 824.19,824.891 H 3152.69 c 0,0 0,-451.879 0,-824.891 h 484.9"
         style="fill:#b99c92;fill-opacity:1;fill-rule:nonzero;stroke:none"
         id="path92" /><path
         d="M 4461.78,2135.11 H 3152.69 L 4461.78,824.891 Z"
         style="fill:#d4c7a2;fill-opacity:1;fill-rule:nonzero;stroke:none"
         id="path94" /><path
         d="M 3152.69,2135.11 V 824.891 h 1309.09 z"
         style="fill:#ccb598;fill-opacity:1;fill-rule:nonzero;stroke:none"
         id="path96" /><path
         d="M 3152.69,7375.96 H 1843.6 L 3152.69,6065.75 Z"
         style="fill:#f57b40;fill-opacity:1;fill-rule:nonzero;stroke:none"
         id="path98" /><path
         d="M 1843.6,7375.96 V 6065.75 h 1309.09 z"
         style="fill:#f57f43;fill-opacity:1;fill-rule:nonzero;stroke:none"
         id="path100" /><path
         d="M 2881.13,8414.38 C 2497.64,8030.57 1843.6,7375.96 1843.6,7375.96 h 1309.09 c 0,0 0,654.61 0,1038.42 h -271.56"
         style="fill:#f15f38;fill-opacity:1;fill-rule:nonzero;stroke:none"
         id="path102" /><path
         d="m 1843.6,8414.38 c 0,-383.81 0,-1038.42 0,-1038.42 0,0 654.04,654.61 1037.53,1038.42 H 1843.6"
         style="fill:#ea4a31;fill-opacity:1;fill-rule:nonzero;stroke:none"
         id="path104" /><path
         d="M 3152.69,3445.32 H 1843.6 L 3152.69,2135.11 Z"
         style="fill:#f6bd99;fill-opacity:1;fill-rule:nonzero;stroke:none"
         id="path106" /><path
         d="M 1843.6,3445.32 V 2135.11 h 1309.09 z"
         style="fill:#ecae93;fill-opacity:1;fill-rule:nonzero;stroke:none"
         id="path108" /><path
         d="m 3152.69,0 c 0,373.012 0,824.891 0,824.891 0,0 -451.5,-451.879 -824.19,-824.891 h 824.19"
         style="fill:#b17b83;fill-opacity:1;fill-rule:nonzero;stroke:none"
         id="path110" /><path
         d="m 2328.5,0 c 372.69,373.012 824.19,824.891 824.19,824.891 H 1843.6 c 0,0 0,-451.879 0,-824.891 h 484.9"
         style="fill:#ba7f83;fill-opacity:1;fill-rule:nonzero;stroke:none"
         id="path112" /><path
         d="M 3152.69,2135.11 H 1843.6 L 3152.69,824.891 Z"
         style="fill:#d7ab92;fill-opacity:1;fill-rule:nonzero;stroke:none"
         id="path114" /><path
         d="M 1843.6,2135.11 V 824.891 h 1309.09 z"
         style="fill:#ce9a8c;fill-opacity:1;fill-rule:nonzero;stroke:none"
         id="path116" /><path
         d="M 3152.69,6065.75 H 1843.6 L 3152.69,4755.54 Z"
         style="fill:#f9a652;fill-opacity:1;fill-rule:nonzero;stroke:none"
         id="path118" /><path
         d="M 1843.6,6065.75 V 4755.54 h 1309.09 z"
         style="fill:#f9a857;fill-opacity:1;fill-rule:nonzero;stroke:none"
         id="path120" /><path
         d="M 1843.6,3445.32 H 3152.69 V 4755.54 Z"
         style="fill:#fbc37c;fill-opacity:1;fill-rule:nonzero;stroke:none"
         id="path122" /><path
         d="M 1843.6,4755.54 V 3445.32 l 1309.09,1310.22 z"
         style="fill:#fab76b;fill-opacity:1;fill-rule:nonzero;stroke:none"
         id="path124" /><path
         d="M 806.07,8414.38 C 1189.56,8030.57 1843.6,7375.96 1843.6,7375.96 c 0,0 0,654.61 0,1038.42 H 806.07"
         style="fill:#e6392d;fill-opacity:1;fill-rule:nonzero;stroke:none"
         id="path126" /><path
         d="m 534.508,8414.38 c 0,-383.81 0,-1038.42 0,-1038.42 H 1843.6 c 0,0 -654.04,654.61 -1037.53,1038.42 H 534.508"
         style="fill:#e73d2f;fill-opacity:1;fill-rule:nonzero;stroke:none"
         id="path128" /><path
         d="M 1843.6,7375.96 H 534.508 L 1843.6,6065.75 Z"
         style="fill:#f25b38;fill-opacity:1;fill-rule:nonzero;stroke:none"
         id="path130" /><path
         d="M 534.508,7375.96 V 6065.75 H 1843.6 Z"
         style="fill:#f26438;fill-opacity:1;fill-rule:nonzero;stroke:none"
         id="path132" /><path
         d="M 1843.6,6065.75 H 534.508 L 1843.6,4755.54 Z"
         style="fill:#f68848;fill-opacity:1;fill-rule:nonzero;stroke:none"
         id="path134" /><path
         d="M 534.508,6065.75 V 4755.54 H 1843.6 Z"
         style="fill:#f78e4d;fill-opacity:1;fill-rule:nonzero;stroke:none"
         id="path136" /><path
         d="M 1843.6,4755.54 H 534.508 L 1843.6,3445.32 Z"
         style="fill:#f8a363;fill-opacity:1;fill-rule:nonzero;stroke:none"
         id="path138" /><path
         d="M 534.508,4755.54 V 3445.32 H 1843.6 Z"
         style="fill:#f89e6c;fill-opacity:1;fill-rule:nonzero;stroke:none"
         id="path140" /><path
         d="M 534.508,824.891 H 1843.6 V 2135.11 Z"
         style="fill:#cc8481;fill-opacity:1;fill-rule:nonzero;stroke:none"
         id="path142" /><path
         d="M 534.508,2135.11 V 824.891 L 1843.6,2135.11 Z"
         style="fill:#d28880;fill-opacity:1;fill-rule:nonzero;stroke:none"
         id="path144" /><path
         d="M 1843.6,3445.32 H 534.508 L 1843.6,2135.11 Z"
         style="fill:#f49f8c;fill-opacity:1;fill-rule:nonzero;stroke:none"
         id="path146" /><path
         d="M 534.508,3445.32 V 2135.11 H 1843.6 Z"
         style="fill:#e79387;fill-opacity:1;fill-rule:nonzero;stroke:none"
         id="path148" /><path
         d="m 1843.6,0 c 0,373.012 0,824.891 0,824.891 H 534.508 c 0,0 451.5,-451.879 824.192,-824.891 h 484.9"
         style="fill:#b96d7c;fill-opacity:1;fill-rule:nonzero;stroke:none"
         id="path150" /><path
         d="M 1358.7,0 C 986.008,373.012 534.508,824.891 534.508,824.891 c 0,0 0,-451.879 0,-824.891 H 1358.7"
         style="fill:#ad5772;fill-opacity:1;fill-rule:nonzero;stroke:none"
         id="path152" /><path
         d="m 0,6600.71 c 282.727,-282.97 534.508,-534.96 534.508,-534.96 v 1310.21 c 0,0 -251.781,0 -534.508,0 v -775.25"
         style="fill:#e74730;fill-opacity:1;fill-rule:nonzero;stroke:none"
         id="path154" /><path
         d="m 0,6065.75 c 282.727,0 534.508,0 534.508,0 0,0 -251.781,251.99 -534.508,534.96 v -534.96"
         style="fill:#e45234;fill-opacity:1;fill-rule:nonzero;stroke:none"
         id="path156" /><path
         d="m 0,5290.5 c 282.727,-282.97 534.508,-534.96 534.508,-534.96 v 1310.21 c 0,0 -251.781,0 -534.508,0 V 5290.5"
         style="fill:#ee713e;fill-opacity:1;fill-rule:nonzero;stroke:none"
         id="path158" /><path
         d="m 0,4755.54 c 282.727,0 534.508,0 534.508,0 0,0 -251.781,251.99 -534.508,534.96 v -534.96"
         style="fill:#e87b47;fill-opacity:1;fill-rule:nonzero;stroke:none"
         id="path160" /><path
         d="m 0,3980.29 c 282.727,-282.97 534.508,-534.97 534.508,-534.97 v 1310.22 c 0,0 -251.781,0 -534.508,0 v -775.25"
         style="fill:#f38d58;fill-opacity:1;fill-rule:nonzero;stroke:none"
         id="path162" /><path
         d="m 0,3445.32 c 282.727,0 534.508,0 534.508,0 0,0 -251.781,252 -534.508,534.97 v -534.97"
         style="fill:#ec8b65;fill-opacity:1;fill-rule:nonzero;stroke:none"
         id="path164" /><path
         d="m 0,2670.07 c 282.727,-282.96 534.508,-534.96 534.508,-534.96 v 1310.21 c 0,0 -251.781,0 -534.508,0 v -775.25"
         style="fill:#eb8881;fill-opacity:1;fill-rule:nonzero;stroke:none"
         id="path166" /><path
         d="m 0,2135.11 c 282.727,0 534.508,0 534.508,0 0,0 -251.781,252 -534.508,534.96 v -534.96"
         style="fill:#d8807d;fill-opacity:1;fill-rule:nonzero;stroke:none"
         id="path168" /><path
         d="m 534.508,0 c 0,373.012 0,824.891 0,824.891 0,0 -251.781,-252 -534.508,-534.969 0,0 0,-133.621 0,-289.922 h 534.508"
         style="fill:#a54a6b;fill-opacity:1;fill-rule:nonzero;stroke:none"
         id="path170" /><path
         d="m 0,289.922 c 282.727,282.969 534.508,534.969 534.508,534.969 0,0 -251.781,0 -534.508,0 V 289.922"
         style="fill:#a8536f;fill-opacity:1;fill-rule:nonzero;stroke:none"
         id="path172" /><path
         d="M 0,1359.86 C 282.727,1076.89 534.508,824.891 534.508,824.891 V 2135.11 c 0,0 -251.781,0 -534.508,0 v -775.25"
         style="fill:#cd777a;fill-opacity:1;fill-rule:nonzero;stroke:none"
         id="path174" /><path
         d="m 0,824.891 c 282.727,0 534.508,0 534.508,0 0,0 -251.781,251.999 -534.508,534.969 V 824.891"
         style="fill:#bc6b77;fill-opacity:1;fill-rule:nonzero;stroke:none"
         id="path176" /><path
         d="M 262.945,8414.38 C 184.063,8335.43 93.7305,8245.02 0,8151.21 v -775.25 c 282.727,0 534.508,0 534.508,0 0,0 0,654.61 0,1038.42 H 262.945"
         style="fill:#e03129;fill-opacity:1;fill-rule:nonzero;stroke:none"
         id="path178" /><path
         d="m 0,8414.38 c 0,-132.29 0,-263.17 0,-263.17 93.7305,93.81 184.063,184.22 262.945,263.17 H 0"
         style="fill:#d22527;fill-opacity:1;fill-rule:nonzero;stroke:none"
         id="path180" /></g></g></svg>
