<?xml version="1.0" encoding="UTF-8" standalone="no"?>
<svg
   xmlns:dc="http://purl.org/dc/elements/1.1/"
   xmlns:cc="http://creativecommons.org/ns#"
   xmlns:rdf="http://www.w3.org/1999/02/22-rdf-syntax-ns#"
   xmlns:svg="http://www.w3.org/2000/svg"
   xmlns="http://www.w3.org/2000/svg"
   xmlns:sodipodi="http://sodipodi.sourceforge.net/DTD/sodipodi-0.dtd"
   xmlns:inkscape="http://www.inkscape.org/namespaces/inkscape"
   inkscape:version="1.0 (4035a4fb49, 2020-05-01)"
   sodipodi:docname="4.svg"
   version="1.1"
   id="svg2"
   xml:space="preserve"
   width="1057.4026"
   height="817.49731"
   viewBox="0 0 1057.4026 817.49732"><sodipodi:namedview
     inkscape:current-layer="g12"
     inkscape:window-maximized="1"
     inkscape:window-y="-9"
     inkscape:window-x="-9"
     inkscape:cy="409.37554"
     inkscape:cx="529.26001"
     inkscape:zoom="1.2337004"
     showgrid="false"
     id="namedview848"
     inkscape:window-height="1271"
     inkscape:window-width="2400"
     inkscape:pageshadow="2"
     inkscape:pageopacity="0"
     guidetolerance="10"
     gridtolerance="10"
     objecttolerance="10"
     borderopacity="1"
     bordercolor="#666666"
     pagecolor="#ffffff" /><metadata
     id="metadata8"><rdf:RDF><cc:Work
         rdf:about=""><dc:format>image/svg+xml</dc:format><dc:type
           rdf:resource="http://purl.org/dc/dcmitype/StillImage" /></cc:Work></rdf:RDF></metadata><defs
     id="defs6" /><g
     id="g10"
     transform="matrix(1.3333333,0,0,-1.3333333,0,817.49731)"><g
       id="g12"
       transform="scale(0.1)"><path
         d="m 7924.05,6123.47 c -5.53,0 -8.64,0 -8.64,0 2.31,-65.4 5.69,-161.04 8.64,-244.32 v 244.32"
         style="fill:#ef3038;fill-opacity:1;fill-rule:nonzero;stroke:none"
         id="path338" /><path
         d="m 7924.05,6123.47 v 3.31 c -5.53,0 -8.64,0 -8.64,0 h -3.44 l 0.12,-3.43 c 2.32,-65.39 5.7,-161.03 8.64,-244.31 l 6.63,0.11 v 247.63 h -3.31 v -3.31 h -3.32 v -244.32 h 3.32 l 3.31,0.12 c -2.95,83.28 -6.33,178.92 -8.64,244.32 l -3.31,-0.12 v -3.32 c 0,0 3.11,0 8.64,0 v 3.32 h -3.32 3.32"
         style="fill:#ef3038;fill-opacity:1;fill-rule:nonzero;stroke:none"
         id="path340" /><path
         d="m 9.62891,6123.47 c 0,-42.13 0,-135.85 0,-135.85 13.20309,43.93 27.11719,90.21 40.83589,135.85 H 9.62891"
         style="fill:#f8a141;fill-opacity:1;fill-rule:nonzero;stroke:none"
         id="path342" /><path
         d="M 9.62891,6123.47 H 6.3125 c 0,-42.13 0,-135.85 0,-135.85 l 6.4922,-0.95 c 13.2031,43.92 27.1172,90.21 40.8359,135.85 l 1.2813,4.26 H 6.3125 v -3.31 h 3.31641 v -3.32 H 50.4648 v 3.32 l -3.1757,0.95 C 33.5742,6078.78 19.6563,6032.5 6.45313,5988.58 l 3.17578,-0.96 h 3.31639 c 0,0 0,93.72 0,135.85 H 9.62891 v -3.32 3.32"
         style="fill:#f8a141;fill-opacity:1;fill-rule:nonzero;stroke:none"
         id="path344" /><path
         d="m 7924.43,4874.43 c -94.99,-299.37 -171.5,-540.46 -171.5,-540.46 0,0 67.17,77.22 171.5,197.17 v 343.29"
         style="fill:#5e9241;fill-opacity:1;fill-rule:nonzero;stroke:none"
         id="path346" /><path
         d="m 7924.43,4874.43 -5.81,1.85 c -94.99,-299.38 -171.49,-540.47 -171.49,-540.47 l 10.4,-5.83 c 0,0 67.17,77.21 171.49,197.16 l 1.5,1.72 v 345.57 l -11.9,1.85 5.81,-1.85 h -6.09 v -343.29 h 6.09 l -4.6,3.99 c -52.16,-59.97 -95.03,-109.26 -124.86,-143.56 -14.92,-17.15 -26.58,-30.55 -34.5,-39.66 -7.93,-9.12 -12.13,-13.94 -12.13,-13.94 l 4.59,-4 5.81,-1.84 c 0,0 76.5,241.09 171.49,540.46 l -5.8,1.84 h -6.09 6.09"
         style="fill:#5e9241;fill-opacity:1;fill-rule:nonzero;stroke:none"
         id="path348" /><path
         d="m 7924.43,4531.14 c -104.33,-119.95 -171.5,-197.17 -171.5,-197.17 0,0 65.98,-6.47 171.5,-16.81 v 213.98"
         style="fill:#528a41;fill-opacity:1;fill-rule:nonzero;stroke:none"
         id="path350" /><path
         d="m 7924.43,4531.14 -4.6,3.99 c -52.16,-59.97 -95.03,-109.26 -124.86,-143.56 -14.92,-17.15 -26.58,-30.55 -34.5,-39.66 -7.93,-9.12 -12.13,-13.94 -12.13,-13.94 l -7.74,-8.91 11.74,-1.15 c 0,0 65.98,-6.47 171.49,-16.81 l 6.69,-0.66 v 236.98 l -10.69,-12.29 4.6,-3.99 h -6.09 v -213.98 h 6.09 l 0.59,6.06 c -52.76,5.17 -95.63,9.37 -125.31,12.28 -29.69,2.91 -46.14,4.53 -46.18,4.53 l -0.6,-6.06 4.6,-3.99 c 0,0 67.17,77.21 171.49,197.16 l -4.59,4 h -6.09 6.09"
         style="fill:#528a41;fill-opacity:1;fill-rule:nonzero;stroke:none"
         id="path352" /><path
         d="m 7924.43,4317.16 c -105.52,10.34 -171.5,16.81 -171.5,16.81 0,0 68.39,-52.75 171.5,-132.29 v 115.48"
         style="fill:#468547;fill-opacity:1;fill-rule:nonzero;stroke:none"
         id="path354" /><path
         d="m 7924.43,4317.16 0.59,6.06 c -52.76,5.17 -95.63,9.37 -125.31,12.28 -29.69,2.91 -46.14,4.53 -46.18,4.53 l -21.1,2.07 16.79,-12.95 c 0.01,-0.01 4.27,-3.3 12.29,-9.49 24.07,-18.56 81.87,-63.15 159.2,-122.8 l 9.81,-7.57 v 133.39 l -5.5,0.54 -0.59,-6.06 h -6.09 v -115.48 h 6.09 l 3.72,4.82 c -103.11,79.54 -171.5,132.29 -171.5,132.29 l -3.72,-4.82 -0.59,-6.06 c 0,0 65.98,-6.47 171.49,-16.81 l 0.6,6.06 h -6.09 6.09"
         style="fill:#468547;fill-opacity:1;fill-rule:nonzero;stroke:none"
         id="path356" /><path
         d="m 7924.43,4201.68 c -103.11,79.54 -171.5,132.29 -171.5,132.29 0,0 77.79,-141.55 171.5,-312.07 v 179.78"
         style="fill:#418749;fill-opacity:1;fill-rule:nonzero;stroke:none"
         id="path358" /><path
         d="m 7924.43,4201.68 3.72,4.82 c -103.11,79.54 -171.5,132.29 -171.5,132.29 l -9.05,-7.75 c 0,0 77.78,-141.55 171.49,-312.07 l 11.43,2.93 v 182.77 l -2.37,1.83 -3.72,-4.82 h -6.09 V 4021.9 h 6.09 l 5.33,2.93 c -46.85,85.26 -89.72,163.28 -120.88,219.98 -15.58,28.36 -28.24,51.38 -36.99,67.31 -8.76,15.94 -13.61,24.76 -13.62,24.78 l -5.34,-2.93 -3.71,-4.82 c 0.01,-0.01 4.27,-3.3 12.29,-9.49 24.07,-18.56 81.87,-63.15 159.2,-122.8 l 3.72,4.82 h -6.09 6.09"
         style="fill:#418749;fill-opacity:1;fill-rule:nonzero;stroke:none"
         id="path360" /><path
         d="m 7924.43,6.08984 c 0,21.33986 0,42.92966 0,42.92966 -6.69,-15.6406 -12.84,-30.0078 -18.36,-42.92966 h 18.36"
         style="fill:#2c5d41;fill-opacity:1;fill-rule:nonzero;stroke:none"
         id="path362" /><path
         d="m 7924.43,6.08984 h 6.09 c 0,21.33986 0,42.89066 0,42.92966 l -11.69,2.3985 C 7912.14,35.7813 7905.99,21.3984 7900.47,8.48047 L 7896.85,0 h 33.67 v 6.08984 h -6.09 V 12.168 h -18.36 V 6.08984 l 5.6,-2.39843 c 5.51,12.91799 11.67,27.29689 18.36,42.93749 l -5.6,2.3906 h -6.09 c 0,-0.039 0,-21.5898 0,-42.92966 h 6.09 V 12.168 6.08984"
         style="fill:#2c5d41;fill-opacity:1;fill-rule:nonzero;stroke:none"
         id="path364" /><path
         d="m 7924.43,3304.54 c -323.7,-135.68 -776.33,-325.38 -776.33,-325.38 0,0 527.62,-635.97 776.33,-935.75 v 1261.13"
         style="fill:#37834d;fill-opacity:1;fill-rule:nonzero;stroke:none"
         id="path366" /><path
         d="m 7924.43,3304.54 -2.36,5.61 c -323.7,-135.67 -776.32,-325.37 -776.32,-325.37 l -7.58,-3.18 5.24,-6.33 c 0.03,-0.02 8.25,-9.93 23.16,-27.91 104.39,-125.82 535.55,-645.53 753.17,-907.84 l 10.78,-12.99 v 1287.16 l -8.45,-3.54 2.36,-5.61 h -6.09 V 2043.41 h 6.09 l 4.68,3.89 c -124.35,149.89 -318.43,383.83 -481.43,580.29 -81.49,98.24 -155.22,187.1 -208.57,251.41 -26.67,32.15 -48.25,58.16 -63.17,76.14 -14.91,17.97 -23.13,27.88 -23.15,27.91 l -4.69,-3.89 2.35,-5.61 c 0,0 452.63,189.7 776.33,325.37 l -2.35,5.62 h -6.09 6.09"
         style="fill:#37834d;fill-opacity:1;fill-rule:nonzero;stroke:none"
         id="path368" /><path
         d="M 7924.43,5929.53 C 7462.41,5824.74 6720.7,5656.52 6720.7,5656.52 L 7752.93,4333.97 c 0,0 76.51,241.09 171.5,540.46 v 1055.1"
         style="fill:#5c9a43;fill-opacity:1;fill-rule:nonzero;stroke:none"
         id="path370" /><path
         d="m 7924.43,5929.53 -1.35,5.93 c -462.02,-104.78 -1203.73,-273 -1203.73,-273 l -9.35,-2.12 1045.24,-1339.22 3.5,11.01 c 0,0 76.5,241.09 171.49,540.46 l 0.29,0.9 v 1063.66 l -7.44,-1.69 1.35,-5.93 h -6.09 v -1055.1 h 6.09 l -5.81,1.85 c -94.99,-299.38 -171.49,-540.47 -171.49,-540.47 l 5.8,-1.84 4.8,3.75 -1032.23,1322.55 -4.8,-3.75 1.34,-5.94 c 0,0 741.71,168.22 1203.74,273.01 l -1.35,5.94 h -6.09 6.09"
         style="fill:#5c9a43;fill-opacity:1;fill-rule:nonzero;stroke:none"
         id="path372" /><path
         d="M 7924.43,1738.68 C 7675.72,1441.11 7148.1,809.859 7148.1,809.859 c 0,0 422.58,117.231 776.33,215.381 v 713.44"
         style="fill:#2d6f49;fill-opacity:1;fill-rule:nonzero;stroke:none"
         id="path374" /><path
         d="m 7924.43,1738.68 -4.67,3.91 C 7671.05,1445.02 7143.43,813.77 7143.43,813.77 l -12.54,-15 18.84,5.23 c 0.02,0 6.6,1.832 18.85,5.23 85.72,23.778 447.94,124.258 757.48,210.14 l 4.46,1.24 v 734.85 l -10.76,-12.87 4.67,-3.91 h -6.09 v -713.44 h 6.09 l -1.63,5.86 c -176.87,-49.069 -370.96,-102.909 -520.82,-144.491 -74.93,-20.777 -138.81,-38.5 -183.95,-51.031 -22.57,-6.258 -40.46,-11.219 -52.71,-14.617 -12.25,-3.402 -18.83,-5.223 -18.85,-5.231 l 1.63,-5.871 4.67,-3.898 c 0,0 527.62,631.249 776.33,928.819 l -4.67,3.9 h -6.09 6.09"
         style="fill:#2d6f49;fill-opacity:1;fill-rule:nonzero;stroke:none"
         id="path376" /><path
         d="m 7906.07,6.08984 c 5.52,12.92186 11.67,27.28906 18.36,42.92966 V 1025.24 C 7570.68,927.09 7148.1,809.859 7148.1,809.859 c 0,0 487.95,-590.949 663.67,-803.76916 h 94.3"
         style="fill:#2b6445;fill-opacity:1;fill-rule:nonzero;stroke:none"
         id="path378" /><path
         d="m 7906.07,6.08984 5.6,-2.39843 c 5.51,12.91799 11.67,27.29689 18.36,42.93749 l 0.49,1.1524 V 1033.24 l -7.72,-2.14 c -176.87,-49.069 -370.96,-102.909 -520.82,-144.491 -74.93,-20.777 -138.81,-38.5 -183.95,-51.031 -22.57,-6.258 -40.46,-11.219 -52.71,-14.617 -12.25,-3.402 -18.83,-5.223 -18.85,-5.231 l -9.04,-2.511 5.98,-7.231 c 0.02,-0.027 7.62,-9.238 21.3,-25.808 95.8,-116.02 488.61,-591.75 642.37,-777.96906 L 7808.9,0 h 101.19 l 1.58,3.69141 -5.6,2.39843 V 12.168 h -94.3 V 6.08984 l 4.7,3.8711 C 7728.61,116.371 7562.69,317.32 7418.74,491.66 c -71.98,87.168 -138.47,167.692 -186.96,226.418 -24.24,29.363 -43.99,53.281 -57.67,69.852 -13.69,16.582 -21.29,25.789 -21.31,25.808 l -4.7,-3.879 1.63,-5.859 c 0.02,0 6.6,1.832 18.85,5.23 85.72,23.778 447.94,124.258 757.48,210.14 l -1.63,5.87 h -6.09 V 49.0195 h 6.09 l -5.6,2.3985 c -6.69,-15.6367 -12.84,-30.0196 -18.36,-42.93753 l 5.6,-2.39063 V 12.168 6.08984"
         style="fill:#2b6445;fill-opacity:1;fill-rule:nonzero;stroke:none"
         id="path380" /><path
         d="m 7924.43,6125.15 c -361.83,0 -900.24,0 -900.24,0 -171.96,-265.53 -303.49,-468.63 -303.49,-468.63 0,0 741.71,168.22 1203.73,273.01 v 195.62"
         style="fill:#72a140;fill-opacity:1;fill-rule:nonzero;stroke:none"
         id="path382" /><path
         d="m 7924.43,6125.15 v 6.08 c -180.91,0 -405.97,0 -585.8,0 -89.92,0 -168.53,0 -224.66,0 -28.06,0 -50.51,0 -65.93,0 -15.43,0 -23.82,0 -23.85,0 h -3.31 l -1.8,-2.77 c -171.96,-265.53 -303.49,-468.63 -303.49,-468.63 l -8.13,-12.56 14.58,3.31 c 0,0 741.71,168.22 1203.74,273.01 l 4.74,1.07 v 206.57 h -6.09 v -6.08 h -6.09 v -195.62 h 6.09 l -1.35,5.93 c -462.02,-104.78 -1203.73,-273 -1203.73,-273 l 1.35,-5.94 5.11,-3.31 c 0,0 131.53,203.1 303.49,468.63 l -5.11,3.31 v -6.09 c 0.03,0 8.42,0 23.85,0 108,0 559.79,0 876.39,0 v 6.09 h -6.09 6.09"
         style="fill:#72a140;fill-opacity:1;fill-rule:nonzero;stroke:none"
         id="path384" /><path
         d="m 7924.43,4021.9 c -93.71,170.52 -171.5,312.07 -171.5,312.07 L 7148.1,2979.16 c 0,0 452.63,189.7 776.33,325.38 v 717.36"
         style="fill:#3e8c4c;fill-opacity:1;fill-rule:nonzero;stroke:none"
         id="path386" /><path
         d="m 7924.43,4021.9 5.33,2.93 c -46.85,85.26 -89.72,163.28 -120.88,219.98 -15.58,28.36 -28.24,51.38 -36.99,67.31 -8.76,15.94 -13.61,24.76 -13.62,24.78 l -5.9,10.74 -616.1,-1380.04 14.18,5.95 c 0,0 452.63,189.7 776.33,325.37 l 3.74,1.57 v 722.97 l -0.76,1.37 -5.33,-2.93 h -6.09 v -717.36 h 6.09 l -2.36,5.61 c -323.7,-135.67 -776.32,-325.37 -776.32,-325.37 l 2.35,-5.62 5.56,-2.48 604.83,1354.81 -5.56,2.48 -5.33,-2.93 c 0,0 77.78,-141.55 171.49,-312.07 l 5.34,2.93 h -6.09 6.09"
         style="fill:#3e8c4c;fill-opacity:1;fill-rule:nonzero;stroke:none"
         id="path388" /><path
         d="M 6720.7,5656.52 6454.58,4793.64 7752.93,4333.97 Z"
         style="fill:#549e47;fill-opacity:1;fill-rule:nonzero;stroke:none"
         id="path390" /><path
         d="m 6720.7,5656.52 -5.82,1.79 -267.85,-868.46 1323.54,-468.58 -1052.25,1348.19 -3.44,-11.15 5.82,-1.79 -4.8,-3.75 1019.4,-1306.09 -1273.19,450.75 264.41,857.3 -5.82,1.79 -4.8,-3.75 4.8,3.75"
         style="fill:#549e47;fill-opacity:1;fill-rule:nonzero;stroke:none"
         id="path392" /><path
         d="m 6620.89,6125.15 c 56.77,-266.52 99.81,-468.63 99.81,-468.63 0,0 131.53,203.1 303.49,468.63 h -403.3"
         style="fill:#7bac3e;fill-opacity:1;fill-rule:nonzero;stroke:none"
         id="path394" /><path
         d="m 6620.89,6125.15 -5.95,-1.27 c 56.77,-266.52 99.8,-468.63 99.8,-468.63 l 3.07,-14.39 8,12.35 c 0,0 131.53,203.1 303.49,468.63 l 6.09,9.39 h -422.02 l 1.57,-7.35 5.95,1.27 v -6.09 h 403.3 v 6.09 l -5.11,3.31 c -171.96,-265.53 -303.49,-468.63 -303.49,-468.63 l 5.11,-3.31 5.95,1.27 c 0,0 -43.03,202.1 -99.8,468.62 l -5.96,-1.26 v -6.09 6.09"
         style="fill:#7bac3e;fill-opacity:1;fill-rule:nonzero;stroke:none"
         id="path396" /><path
         d="m 7924.43,1913.55 c -377.89,68.71 -1469.85,267.24 -1469.85,267.24 L 7148.1,809.859 c 0,0 527.62,631.251 776.33,928.821 v 174.87"
         style="fill:#2e7b4e;fill-opacity:1;fill-rule:nonzero;stroke:none"
         id="path398" /><path
         d="m 7924.43,1913.55 1.09,5.99 c -377.89,68.71 -1469.86,267.24 -1469.86,267.24 l -12.05,2.19 703.23,-1390.111 5.93,7.102 c 0,0 527.62,631.249 776.33,928.819 l 1.42,1.69 v 182.16 l -5,0.91 -1.09,-5.99 h -6.09 v -174.87 h 6.09 l -4.67,3.91 C 7671.05,1445.02 7143.43,813.77 7143.43,813.77 l 4.67,-3.911 5.43,2.75 -693.52,1370.931 -5.43,-2.75 -1.09,-5.99 c 0.04,-0.01 17.06,-3.1 47.65,-8.66 214.18,-38.94 1091.54,-198.46 1422.2,-258.58 l 1.09,5.99 h -6.09 6.09"
         style="fill:#2e7b4e;fill-opacity:1;fill-rule:nonzero;stroke:none"
         id="path400" /><path
         d="m 7924.43,2043.41 c -248.71,299.78 -776.33,935.75 -776.33,935.75 l -693.52,-798.37 c 0,0 1091.96,-198.53 1469.85,-267.24 v 129.86"
         style="fill:#338450;fill-opacity:1;fill-rule:nonzero;stroke:none"
         id="path402" /><path
         d="m 7924.43,2043.41 4.68,3.89 c -124.35,149.89 -318.43,383.83 -481.43,580.29 -81.49,98.24 -155.22,187.1 -208.57,251.41 -26.67,32.15 -48.25,58.16 -63.17,76.14 -14.91,17.97 -23.13,27.88 -23.15,27.91 l -4.58,5.52 -705.24,-811.86 10.52,-1.91 c 0.04,-0.01 17.06,-3.1 47.65,-8.66 214.18,-38.94 1091.54,-198.46 1422.2,-258.58 l 7.18,-1.31 v 139.36 l -1.41,1.69 -4.68,-3.89 h -6.09 v -129.86 h 6.09 l 1.09,5.99 c -377.89,68.71 -1469.86,267.24 -1469.86,267.24 l -1.08,-5.99 4.59,-3.99 693.53,798.37 -4.6,3.99 -4.69,-3.89 c 0.03,-0.02 8.25,-9.93 23.16,-27.91 104.39,-125.82 535.55,-645.53 753.17,-907.84 l 4.69,3.89 h -6.09 6.09"
         style="fill:#338450;fill-opacity:1;fill-rule:nonzero;stroke:none"
         id="path404" /><path
         d="M 7811.77,6.08984 C 7636.05,218.91 7148.1,809.859 7148.1,809.859 c 0,0 -76.28,-505.898 -121.19,-803.76916 h 784.86"
         style="fill:#2b6043;fill-opacity:1;fill-rule:nonzero;stroke:none"
         id="path406" /><path
         d="m 7811.77,6.08984 4.7,3.8711 C 7728.61,116.371 7562.69,317.32 7418.74,491.66 c -71.98,87.168 -138.47,167.692 -186.96,226.418 -24.24,29.363 -43.99,53.281 -57.67,69.852 -13.69,16.582 -21.29,25.789 -21.31,25.808 l -8.69,10.52 -2.03,-13.488 c 0,0 -76.28,-505.911 -121.19,-803.78172 L 7019.83,0 h 804.87 l -8.23,9.96094 -4.7,-3.8711 V 12.168 H 7026.91 V 6.08984 l 6.02,-0.91015 c 22.46,148.92931 52.75,349.87931 77.44,513.59031 12.34,81.851 23.28,154.402 31.13,206.48 3.93,26.051 7.08,46.969 9.26,61.391 2.17,14.41 3.36,22.3 3.36,22.32 l -6.02,0.898 -4.69,-3.871 c 0.02,-0.027 7.62,-9.238 21.3,-25.808 95.8,-116.02 488.61,-591.75 642.37,-777.96906 l 4.69,3.8789 V 12.168 6.08984"
         style="fill:#2b6043;fill-opacity:1;fill-rule:nonzero;stroke:none"
         id="path408" /><path
         d="M 6454.58,4793.64 7148.1,2979.16 7752.93,4333.97 Z"
         style="fill:#46964c;fill-opacity:1;fill-rule:nonzero;stroke:none"
         id="path410" /><path
         d="m 6454.58,4793.64 -5.69,-2.17 698.77,-1828.22 613.52,1374.26 -1317,466.27 4.71,-12.31 5.69,2.17 -2.04,-5.74 1292.15,-457.47 -596.15,-1335.36 -688.28,1800.74 -5.68,-2.17 -2.04,-5.74 2.04,5.74"
         style="fill:#46964c;fill-opacity:1;fill-rule:nonzero;stroke:none"
         id="path412" /><path
         d="M 6454.58,4793.64 5882.01,4382.35 7148.1,2979.16 Z"
         style="fill:#479f4f;fill-opacity:1;fill-rule:nonzero;stroke:none"
         id="path414" /><path
         d="m 6454.58,4793.64 -3.56,4.94 -578.09,-415.25 1270.65,-1408.25 10.21,6.26 -696.35,1821.85 -6.42,-4.61 3.56,-4.94 -5.69,-2.17 681.87,-1784.01 -1239.67,1373.92 567.04,407.31 -3.55,4.95 -5.69,-2.17 5.69,2.17"
         style="fill:#479f4f;fill-opacity:1;fill-rule:nonzero;stroke:none"
         id="path416" /><path
         d="M 5882.01,4382.35 5720.72,3463.02 7148.1,2979.16 Z"
         style="fill:#409e52;fill-opacity:1;fill-rule:nonzero;stroke:none"
         id="path418" /><path
         d="m 5882.01,4382.35 -6,1.06 -162.19,-924.48 1454.45,-493.04 -1290.1,1429.81 -2.16,-12.29 6,-1.06 -4.52,-4.07 1250.44,-1385.85 -1400.31,474.68 160.38,914.19 -5.99,1.05 -4.52,-4.07 4.52,4.07"
         style="fill:#409e52;fill-opacity:1;fill-rule:nonzero;stroke:none"
         id="path420" /><path
         d="m 5720.72,3463.02 733.86,-1282.23 693.52,798.37 z"
         style="fill:#399553;fill-opacity:1;fill-rule:nonzero;stroke:none"
         id="path422" /><path
         d="m 5720.72,3463.02 -5.29,-3.02 738.12,-1289.67 705.09,811.69 -1451.19,491.93 7.98,-13.95 5.29,3.02 -1.96,-5.76 1418.8,-480.95 -681.96,-785.05 -729.6,1274.79 -5.28,-3.03 -1.96,-5.76 1.96,5.76"
         style="fill:#399553;fill-opacity:1;fill-rule:nonzero;stroke:none"
         id="path424" /><path
         d="M 6454.58,2180.79 5583.63,713.102 7148.1,809.859 Z"
         style="fill:#2f7d50;fill-opacity:1;fill-rule:nonzero;stroke:none"
         id="path426" /><path
         d="m 6454.58,2180.79 -5.24,3.11 -876.82,-1477.591 1585.19,98.05 -702.71,1389.081 -5.66,-9.54 5.24,-3.11 -5.44,-2.75 689.35,-1362.669 -1543.76,-95.492 865.08,1457.811 -5.23,3.1 -5.44,-2.75 5.44,2.75"
         style="fill:#2f7d50;fill-opacity:1;fill-rule:nonzero;stroke:none"
         id="path428" /><path
         d="M 7026.91,6.08984 C 7071.82,303.961 7148.1,809.859 7148.1,809.859 c 0,0 -825.35,-609.05 -1089.23,-803.76916 h 968.04"
         style="fill:#2b6846;fill-opacity:1;fill-rule:nonzero;stroke:none"
         id="path430" /><path
         d="m 7026.91,6.08984 6.02,-0.91015 c 22.46,148.92931 52.75,349.87931 77.44,513.59031 12.34,81.851 23.28,154.402 31.13,206.48 3.93,26.051 7.08,46.969 9.26,61.391 2.17,14.41 3.36,22.3 3.36,22.32 l 2.19,14.527 -11.83,-8.726 c 0,0 -825.35,-609.051 -1089.22,-803.7815 L 6040.37,0 h 991.78 l 0.78,5.17969 -6.02,0.91015 V 12.168 H 6058.87 V 6.08984 l 3.62,-4.89843 C 6326.36,195.91 7151.72,804.969 7151.72,804.969 l -3.62,4.89 -6.02,0.911 c 0,0 -76.28,-505.911 -121.19,-803.78172 l 6.02,-0.89844 V 12.168 6.08984"
         style="fill:#2b6846;fill-opacity:1;fill-rule:nonzero;stroke:none"
         id="path432" /><path
         d="M 6058.87,6.08984 C 6322.75,200.809 7148.1,809.859 7148.1,809.859 L 5583.63,713.102 c 0,0 272.01,-527.383 364.67,-707.01216 h 110.57"
         style="fill:#2d724b;fill-opacity:1;fill-rule:nonzero;stroke:none"
         id="path434" /><path
         d="m 6058.87,6.08984 3.62,-4.89843 C 6326.36,195.91 7151.72,804.969 7151.72,804.969 l 16.59,12.25 -1594.37,-98.617 4.28,-8.293 c 0.01,-0.028 4.25,-8.239 11.87,-23.008 C 5643.42,583.898 5861.81,160.48 5942.88,3.28906 L 5944.58,0 h 116.3 l 1.61,1.19141 -3.62,4.89843 V 12.168 H 5948.3 V 6.08984 l 5.41,2.78907 C 5907.38,98.6992 5816.21,275.449 5736.63,429.75 c -39.8,77.148 -76.69,148.68 -103.64,200.93 -13.48,26.121 -24.46,47.429 -32.08,62.199 -7.62,14.769 -11.86,22.992 -11.87,23.012 l -5.41,-2.789 0.37,-6.082 1564.48,96.769 -0.38,6.07 -3.62,4.903 c 0,0 -825.35,-609.051 -1089.22,-803.7815 l 3.61,-4.89066 V 12.168 6.08984"
         style="fill:#2d724b;fill-opacity:1;fill-rule:nonzero;stroke:none"
         id="path436" /><path
         d="m 6335.05,6125.15 c 215.74,-262.16 385.65,-468.63 385.65,-468.63 0,0 -43.04,202.11 -99.81,468.63 h -285.84"
         style="fill:#7bb641;fill-opacity:1;fill-rule:nonzero;stroke:none"
         id="path438" /><path
         d="m 6335.05,6125.15 -4.7,-3.87 C 6546.08,5859.13 6716,5652.65 6716,5652.65 l 10.65,5.14 c 0,0 -43.03,202.1 -99.8,468.62 l -1.03,4.82 h -303.66 l 8.19,-9.95 4.7,3.87 v -6.09 h 285.84 v 6.09 l -5.95,-1.27 c 56.77,-266.52 99.8,-468.63 99.8,-468.63 l 5.96,1.27 4.7,3.87 c 0,0 -169.91,206.47 -385.65,468.63 l -4.7,-3.87 v -6.09 6.09"
         style="fill:#7bb641;fill-opacity:1;fill-rule:nonzero;stroke:none"
         id="path440" /><path
         d="m 5738.35,6125.15 c 102.24,-378.27 192.05,-710.56 192.05,-710.56 l 790.3,241.93 c 0,0 -169.91,206.47 -385.65,468.63 h -596.7"
         style="fill:#6fb444;fill-opacity:1;fill-rule:nonzero;stroke:none"
         id="path442" /><path
         d="m 5738.35,6125.15 -5.87,-1.59 C 5834.71,5745.29 5924.52,5413 5924.52,5413 l 1.64,-6.07 805.02,246.43 -5.78,7.03 c 0,0 -169.91,206.47 -385.65,468.63 l -1.82,2.21 H 5730.4 l 2.08,-7.67 5.87,1.59 v -6.09 h 596.7 v 6.09 l -4.7,-3.87 C 6546.08,5859.13 6716,5652.65 6716,5652.65 l 4.7,3.87 -1.78,5.82 -790.31,-241.93 1.79,-5.82 5.87,1.59 c 0,0 -89.8,332.29 -192.04,710.55 l -5.88,-1.58 v -6.09 6.09"
         style="fill:#6fb444;fill-opacity:1;fill-rule:nonzero;stroke:none"
         id="path444" /><path
         d="m 5930.4,5414.59 524.18,-620.95 266.12,862.88 z"
         style="fill:#5ca948;fill-opacity:1;fill-rule:nonzero;stroke:none"
         id="path446" /><path
         d="m 5930.4,5414.59 -4.66,-3.93 531.37,-629.46 272.79,884.5 -810.11,-247.99 5.95,-7.05 4.66,3.93 1.78,-5.82 779.31,238.57 -259.45,-841.26 -516.99,612.44 -4.65,-3.93 1.78,-5.82 -1.78,5.82"
         style="fill:#5ca948;fill-opacity:1;fill-rule:nonzero;stroke:none"
         id="path448" /><path
         d="M 5720.72,3463.02 5196.54,2366.28 6454.58,2180.79 Z"
         style="fill:#389a56;fill-opacity:1;fill-rule:nonzero;stroke:none"
         id="path450" /><path
         d="m 5720.72,3463.02 -5.5,2.63 -527.73,-1104.19 1278.59,-188.52 -745.85,1303.19 -5.01,-10.48 5.5,-2.63 -5.29,-3.02 727.64,-1271.36 -1237.48,182.46 520.62,1089.3 -5.49,2.62 -5.29,-3.02 5.29,3.02"
         style="fill:#389a56;fill-opacity:1;fill-rule:nonzero;stroke:none"
         id="path452" /><path
         d="M 5196.54,2366.28 5583.63,713.102 6454.58,2180.79 Z"
         style="fill:#328e56;fill-opacity:1;fill-rule:nonzero;stroke:none"
         id="path454" /><path
         d="m 5196.54,2366.28 -5.93,-1.39 390.54,-1667.902 883.29,1488.502 -1275.87,188.12 2.04,-8.72 5.93,1.39 -0.89,-6.02 1249.06,-184.17 -858.6,-1446.879 -383.64,1638.459 -5.93,-1.39 -0.89,-6.02 0.89,6.02"
         style="fill:#328e56;fill-opacity:1;fill-rule:nonzero;stroke:none"
         id="path456" /><path
         d="m 5930.4,5414.59 -48.39,-1032.24 572.57,411.29 z"
         style="fill:#54a94c;fill-opacity:1;fill-rule:nonzero;stroke:none"
         id="path458" /><path
         d="m 5930.4,5414.59 -6.09,0.29 -48.98,-1044.81 588.14,422.47 -538.43,637.83 -0.73,-15.49 6.09,-0.29 -4.66,-3.93 519.94,-615.92 -557,-400.1 47.8,1019.67 -6.08,0.28 -4.66,-3.93 4.66,3.93"
         style="fill:#54a94c;fill-opacity:1;fill-rule:nonzero;stroke:none"
         id="path460" /><path
         d="m 5005.31,6125.15 c -132.92,-325.26 -244.24,-597.66 -244.24,-597.66 l 1169.33,-112.9 c 0,0 -89.81,332.29 -192.05,710.56 h -733.04"
         style="fill:#6dbc48;fill-opacity:1;fill-rule:nonzero;stroke:none"
         id="path462" /><path
         d="m 5005.31,6125.15 -5.64,2.3 C 4866.75,5802.2 4755.43,5529.8 4755.43,5529.8 l -3.09,-7.58 1186.23,-114.54 -2.3,8.5 c 0,0 -89.8,332.29 -192.04,710.55 l -1.22,4.5 h -741.79 l -1.55,-3.78 5.64,-2.3 v -6.09 h 733.04 v 6.09 l -5.87,-1.59 C 5834.71,5745.29 5924.52,5413 5924.52,5413 l 5.88,1.59 0.58,6.06 -1169.33,112.9 -0.58,-6.06 5.64,-2.3 c 0,0 111.31,272.4 244.23,597.65 l -5.63,2.31 v -6.09 6.09"
         style="fill:#6dbc48;fill-opacity:1;fill-rule:nonzero;stroke:none"
         id="path464" /><path
         d="M 5196.51,2366.3 4575.6,785.629 5583.6,713.09 5196.51,2366.3"
         style="fill:#308f56;fill-opacity:1;fill-rule:nonzero;stroke:none"
         id="path466" /><path
         d="m 5196.51,2366.3 -5.67,2.25 -623.97,-1588.32 1024.56,-73.8 -393.39,1680.21 -7.2,-18.09 5.67,-2.25 -5.94,-1.44 385.2,-1645.11 -991.53,71.371 617.94,1572.929 -5.67,2.25 -5.94,-1.44 5.94,1.44"
         style="fill:#308f56;fill-opacity:1;fill-rule:nonzero;stroke:none"
         id="path468" /><path
         d="m 4680.42,4358.17 1040.3,-895.15 161.29,919.33 z"
         style="fill:#48ab52;fill-opacity:1;fill-rule:nonzero;stroke:none"
         id="path470" /><path
         d="m 4680.42,4358.17 -3.97,-4.62 1048.41,-902.13 164.42,937.17 -1224.89,-24.66 12.06,-10.38 3.97,4.62 0.13,-6.09 1194.18,24.04 -158.16,-901.5 -1032.17,888.16 -3.98,-4.61 0.13,-6.09 -0.13,6.09"
         style="fill:#48ab52;fill-opacity:1;fill-rule:nonzero;stroke:none"
         id="path472" /><path
         d="m 4761.07,5527.49 -80.65,-1169.32 1201.59,24.18 z"
         style="fill:#52b54f;fill-opacity:1;fill-rule:nonzero;stroke:none"
         id="path474" /><path
         d="m 4761.07,5527.49 -6.07,0.42 -81.11,-1175.97 1222.32,24.61 -1140.28,1164.9 -0.93,-13.54 6.07,-0.42 -4.35,-4.26 1111.09,-1135.07 -1180.85,-23.77 80.18,1162.68 -6.07,0.42 -4.35,-4.26 4.35,4.26"
         style="fill:#52b54f;fill-opacity:1;fill-rule:nonzero;stroke:none"
         id="path476" /><path
         d="M 4761.07,5527.49 5882.01,4382.35 5930.4,5414.59 Z"
         style="fill:#57b24c;fill-opacity:1;fill-rule:nonzero;stroke:none"
         id="path478" /><path
         d="m 4761.07,5527.49 -4.35,-4.26 1130.71,-1155.12 49.32,1051.99 -1191.7,115.06 11.67,-11.93 4.35,4.26 -0.59,-6.06 1163.56,-112.34 -47.46,-1012.49 -1111.16,1135.15 -4.35,-4.26 -0.59,-6.06 0.59,6.06"
         style="fill:#57b24c;fill-opacity:1;fill-rule:nonzero;stroke:none"
         id="path480" /><path
         d="M 5948.3,6.08984 C 5855.64,185.719 5583.63,713.102 5583.63,713.102 c 0,0 -435.5,-447.723 -687.72,-707.01216 H 5948.3"
         style="fill:#2e764d;fill-opacity:1;fill-rule:nonzero;stroke:none"
         id="path482" /><path
         d="m 5948.3,6.08984 5.41,2.78907 C 5907.38,98.6992 5816.21,275.449 5736.63,429.75 c -39.8,77.148 -76.69,148.68 -103.64,200.93 -13.48,26.121 -24.46,47.429 -32.08,62.199 -7.62,14.769 -11.86,22.992 -11.87,23.012 l -3.88,7.519 -5.9,-6.07 c 0,0 -435.49,-447.711 -687.71,-707.0119 L 4881.5,0 h 1076.79 l -4.58,8.87891 -5.41,-2.78907 V 12.168 H 4895.91 V 6.08984 l 4.37,-4.25 C 5152.49,261.141 5587.99,708.852 5587.99,708.852 l -4.36,4.25 -5.41,-2.793 c 0.01,-0.028 4.25,-8.239 11.87,-23.008 53.33,-103.403 271.72,-526.821 352.79,-684.01194 l 5.42,2.80078 V 12.168 6.08984"
         style="fill:#2e764d;fill-opacity:1;fill-rule:nonzero;stroke:none"
         id="path484" /><path
         d="m 4763.81,6125.15 c -1.5,-328.05 -2.74,-597.66 -2.74,-597.66 0,0 111.32,272.4 244.24,597.66 h -241.5"
         style="fill:#7cc547;fill-opacity:1;fill-rule:nonzero;stroke:none"
         id="path486" /><path
         d="m 4763.81,6125.15 -6.09,0.03 c -1.5,-328.05 -2.74,-597.66 -2.74,-597.66 l 11.73,-2.33 c 0,0 111.31,272.4 244.23,597.65 l 3.43,8.39 h -256.62 l -0.03,-6.05 6.09,-0.03 v -6.09 h 241.5 v 6.09 l -5.64,2.3 C 4866.75,5802.2 4755.43,5529.8 4755.43,5529.8 l 5.64,-2.31 6.09,-0.03 c 0,0 1.24,269.61 2.74,597.66 l -6.09,0.03 v -6.09 6.09"
         style="fill:#7cc547;fill-opacity:1;fill-rule:nonzero;stroke:none"
         id="path488" /><path
         d="m 4212.69,3446.9 983.85,-1080.62 524.18,1096.74 z"
         style="fill:#3ca758;fill-opacity:1;fill-rule:nonzero;stroke:none"
         id="path490" /><path
         d="m 4212.69,3446.9 -4.5,-4.1 989.94,-1087.31 532.29,1113.73 -1531.37,-16.38 9.14,-10.04 4.5,4.1 0.07,-6.09 1498.25,16.02 -516.06,-1079.76 -977.76,1073.92 -4.5,-4.09 0.07,-6.09 -0.07,6.09"
         style="fill:#3ca758;fill-opacity:1;fill-rule:nonzero;stroke:none"
         id="path492" /><path
         d="m 4680.42,4358.17 -467.73,-911.27 1508.03,16.12 z"
         style="fill:#44b056;fill-opacity:1;fill-rule:nonzero;stroke:none"
         id="path494" /><path
         d="m 4680.42,4358.17 -5.41,2.78 -472.34,-920.25 1534.26,16.41 -1058.39,910.71 -3.53,-6.87 5.41,-2.78 -3.97,-4.62 1028.06,-884.61 -1481.8,-15.85 463.13,902.3 -5.42,2.78 -3.97,-4.62 3.97,4.62"
         style="fill:#44b056;fill-opacity:1;fill-rule:nonzero;stroke:none"
         id="path496" /><path
         d="M 4059.45,2092.07 4575.6,785.629 5196.51,2366.3 4059.45,2092.07"
         style="fill:#349b5a;fill-opacity:1;fill-rule:nonzero;stroke:none"
         id="path498" /><path
         d="m 4059.45,2092.07 -5.67,-2.25 521.82,-1320.75 630.9,1605.87 -1155.24,-278.55 2.52,-6.57 5.67,2.25 1.44,-5.94 1125.72,271.53 -611.01,-1555.379 -510.48,1292.039 -5.67,-2.25 1.44,-5.94 -1.44,5.94"
         style="fill:#349b5a;fill-opacity:1;fill-rule:nonzero;stroke:none"
         id="path500" /><path
         d="M 4895.91,6.05078 C 5148.09,265.34 5583.6,713.09 5583.6,713.09 l -1008,72.539 c 0,0 75.87,-501.66 117.9,-779.57822 h 202.41"
         style="fill:#2f8251;fill-opacity:1;fill-rule:nonzero;stroke:none"
         id="path502" /><path
         d="m 4895.91,6.05078 4.41,-4.23047 C 5152.5,261.109 5588.01,708.859 5588.01,708.859 l 9.09,9.36 -1028.7,74.07 1.17,-7.559 c 0,0 1.17,-7.832 3.33,-22.05 15.12,-99.809 77.76,-514.348 114.57,-757.53156 l 0.81,-5.1289087 h 210.24 l 1.8,1.8007787 -4.41,4.23047 V 12.168 H 4693.5 V 6.05078 l 6.03,0.98828 C 4678.47,145.91 4649.04,340.852 4624.83,501.051 c -12.15,80.008 -22.95,151.469 -30.69,202.769 -3.87,25.739 -7.02,46.442 -9.18,60.66 -2.16,14.309 -3.33,22.051 -3.33,22.141 l -6.03,-0.992 -0.45,-6.027 1008,-72.543 0.45,6.031 -4.32,4.23 c 0,0 -435.51,-447.66 -687.69,-706.9489 l 4.32,-4.32032 V 12.168 6.05078"
         style="fill:#2f8251;fill-opacity:1;fill-rule:nonzero;stroke:none"
         id="path504" /><path
         d="m 4093.62,6125.15 c 324.34,-290.43 667.45,-597.66 667.45,-597.66 0,0 1.24,269.61 2.74,597.66 h -670.19"
         style="fill:#7cc948;fill-opacity:1;fill-rule:nonzero;stroke:none"
         id="path506" /><path
         d="m 4093.62,6125.15 -4.06,-4.54 c 324.34,-290.43 667.45,-597.65 667.45,-597.65 l 10.08,-9.04 0.07,13.54 c 0,0 1.24,269.61 2.74,597.66 l 0.03,6.11 h -692.24 l 11.87,-10.62 4.06,4.54 v -6.09 h 670.19 v 6.09 l -6.09,0.03 c -1.5,-328.05 -2.74,-597.66 -2.74,-597.66 l 6.09,-0.03 4.06,4.54 c 0,0 -343.1,307.22 -667.45,597.65 l -4.06,-4.53 v -6.09 6.09"
         style="fill:#7cc948;fill-opacity:1;fill-rule:nonzero;stroke:none"
         id="path508" /><path
         d="m 4212.69,3446.9 -153.22,-1354.82 1137.07,274.2 z"
         style="fill:#3ca759;fill-opacity:1;fill-rule:nonzero;stroke:none"
         id="path510" /><path
         d="m 4212.69,3446.9 -6.05,0.68 -154.2,-1363.46 1155.53,278.65 -999.82,1098.16 -1.51,-13.35 6.05,-0.68 -4.5,-4.1 976.92,-1073.01 -1118.61,-269.75 152.24,1346.17 -6.05,0.69 -4.5,-4.1 4.5,4.1"
         style="fill:#3ca759;fill-opacity:1;fill-rule:nonzero;stroke:none"
         id="path512" /><path
         d="M 4693.5,6.05078 C 4651.47,283.969 4575.6,785.629 4575.6,785.629 c 0,0 -751.77,-556.109 -1053.9,-779.57822 h 1171.8"
         style="fill:#328350;fill-opacity:1;fill-rule:nonzero;stroke:none"
         id="path514" /><path
         d="m 4693.5,6.05078 6.03,0.98828 C 4678.47,145.91 4649.04,340.852 4624.83,501.051 c -12.15,80.008 -22.95,151.469 -30.69,202.769 -3.87,25.739 -7.02,46.442 -9.18,60.66 -2.16,14.309 -3.33,22.051 -3.33,22.141 l -1.53,9.988 -8.1,-6.031 c 0,0 -751.86,-556.109 -1053.9,-779.578 L 3503.25,0.0195313 H 4700.61 L 4699.53,7.03906 4693.5,6.05078 V 12.168 H 3521.7 V 6.05078 l 3.6,-4.85937 C 3827.43,224.66 4579.2,780.77 4579.2,780.77 l -3.6,4.859 -6.03,-0.899 c 0,0 1.17,-7.832 3.33,-22.05 15.12,-99.809 77.76,-514.348 114.57,-757.53156 l 6.03,0.90234 V 12.168 6.05078"
         style="fill:#328350;fill-opacity:1;fill-rule:nonzero;stroke:none"
         id="path516" /><path
         d="m 3503.03,4971.05 1177.39,-612.88 80.65,1169.32 z"
         style="fill:#58bc4f;fill-opacity:1;fill-rule:nonzero;stroke:none"
         id="path518" /><path
         d="m 3503.03,4971.05 -2.81,-5.4 1185.64,-617.18 81.98,1188.67 -1278.85,-565.64 11.23,-5.85 2.81,5.4 2.46,-5.57 1248.81,552.36 -79.31,-1149.98 -1169.15,608.59 -2.81,-5.4 2.46,-5.57 -2.46,5.57"
         style="fill:#58bc4f;fill-opacity:1;fill-rule:nonzero;stroke:none"
         id="path520" /><path
         d="m 3519.84,6125.15 c -7.12,-488.58 -16.81,-1154.1 -16.81,-1154.1 l 1258.04,556.44 c 0,0 -343.11,307.23 -667.45,597.66 h -573.78"
         style="fill:#6cc64b;fill-opacity:1;fill-rule:nonzero;stroke:none"
         id="path522" /><path
         d="m 3519.84,6125.15 -6.09,0.08 c -7.11,-488.57 -16.81,-1154.09 -16.81,-1154.09 l -0.13,-9.5 1275.35,564.1 -7.03,6.29 c 0,0 -343.1,307.22 -667.45,597.65 l -1.73,1.55 h -582.11 l -0.09,-6 6.09,-0.08 v -6.09 h 573.78 v 6.09 l -4.06,-4.54 c 324.34,-290.43 667.45,-597.65 667.45,-597.65 l 4.06,4.53 -2.46,5.57 -1258.04,-556.44 2.46,-5.57 6.09,-0.09 c 0,0 9.69,665.52 16.81,1154.1 l -6.09,0.09 v -6.09 6.09"
         style="fill:#6cc64b;fill-opacity:1;fill-rule:nonzero;stroke:none"
         id="path524" /><path
         d="m 3503.03,4971.05 709.66,-1524.15 467.73,911.27 z"
         style="fill:#4fba52;fill-opacity:1;fill-rule:nonzero;stroke:none"
         id="path526" /><path
         d="m 3503.03,4971.05 -5.52,-2.57 714.91,-1535.44 476.19,927.73 -1198.66,623.95 7.56,-16.24 5.52,2.57 -2.81,-5.4 1172.02,-610.09 -459.28,-894.81 -704.41,1512.87 -5.52,-2.57 -2.81,-5.4 2.81,5.4"
         style="fill:#4fba52;fill-opacity:1;fill-rule:nonzero;stroke:none"
         id="path528" /><path
         d="m 3511.09,2132.41 548.38,-40.33 153.22,1354.82 z"
         style="fill:#3daa58;fill-opacity:1;fill-rule:nonzero;stroke:none"
         id="path530" /><path
         d="m 3511.09,2132.41 -0.44,-6.07 554.21,-40.76 153.88,1360.63 -11.42,3.55 -706,-1322.73 9.33,-0.69 0.44,6.07 5.37,-2.86 686.6,1286.37 -148.98,-1317.34 -542.54,39.91 -0.45,-6.08 5.37,-2.86 -5.37,2.86"
         style="fill:#3daa58;fill-opacity:1;fill-rule:nonzero;stroke:none"
         id="path532" /><path
         d="M 4059.45,2092.07 3511.08,2132.39 4575.6,785.629 4059.45,2092.07"
         style="fill:#369e5a;fill-opacity:1;fill-rule:nonzero;stroke:none"
         id="path534" /><path
         d="m 4059.45,2092.07 0.45,6.12 -562.14,41.31 1073.07,-1357.559 10.44,5.938 -517.5,1309.951 -3.87,0.36 -0.45,-6.12 -5.67,-2.25 500.94,-1267.922 -1030.23,1303.472 534.51,-39.33 0.45,6.03 -5.67,-2.25 5.67,2.25"
         style="fill:#369e5a;fill-opacity:1;fill-rule:nonzero;stroke:none"
         id="path536" /><path
         d="M 3511.08,2132.39 2793.33,842.148 4575.6,785.629 3511.08,2132.39"
         style="fill:#389b57;fill-opacity:1;fill-rule:nonzero;stroke:none"
         id="path538" /><path
         d="m 3511.08,2132.39 -5.31,2.97 -722.61,-1298.969 1805.31,-57.243 -1078.29,1364.222 -4.41,-8.01 5.31,-2.97 -4.77,-3.78 1056.33,-1336.411 -1759.05,55.711 712.8,1281.51 -5.31,2.97 -4.77,-3.78 4.77,3.78"
         style="fill:#389b57;fill-opacity:1;fill-rule:nonzero;stroke:none"
         id="path540" /><path
         d="M 3521.7,6.05078 C 3823.83,229.52 4575.6,785.629 4575.6,785.629 l -1782.27,56.519 c 0,0 392.76,-602.187 545.31,-836.09722 h 183.06"
         style="fill:#378f52;fill-opacity:1;fill-rule:nonzero;stroke:none"
         id="path542" /><path
         d="m 3521.7,6.05078 3.6,-4.85937 C 3827.43,224.66 4579.2,780.77 4579.2,780.77 l 14.13,10.441 -1811.43,57.328 6.39,-9.719 c 0,-0.09 6.12,-9.449 17.19,-26.371 77.22,-118.437 394.56,-605.07 528.03,-809.73025 l 1.8,-2.6992187 h 188.37 l 1.62,1.1718787 -3.6,4.85937 V 12.168 H 3338.64 V 6.05078 l 5.04,3.32813 C 3267.45,126.379 3131.1,335.359 3013.92,515.18 c -58.68,89.82 -112.5,172.441 -151.74,232.558 -19.53,30.063 -35.46,54.453 -46.53,71.371 -11.07,16.922 -17.19,26.282 -17.19,26.371 l -5.13,-3.332 -0.18,-6.117 1782.27,-56.429 0.18,6.027 -3.6,4.949 c 0,0 -751.86,-556.109 -1053.9,-779.578 l 3.6,-4.94922 V 12.168 6.05078"
         style="fill:#378f52;fill-opacity:1;fill-rule:nonzero;stroke:none"
         id="path544" /><path
         d="m 3005.3,6125.15 c -177.96,-172.92 -332.89,-323.47 -332.89,-323.47 l 830.62,-830.63 c 0,0 9.69,665.52 16.81,1154.1 H 3005.3"
         style="fill:#72c94b;fill-opacity:1;fill-rule:nonzero;stroke:none"
         id="path546" /><path
         d="m 3005.3,6125.15 -4.25,4.37 C 2823.1,5956.6 2668.16,5806.05 2668.16,5806.05 l -4.43,-4.31 845.18,-845.18 0.21,14.4 c 0,0 9.69,665.52 16.81,1154.1 l 0.09,6.17 h -523.19 l -1.78,-1.71 4.25,-4.37 v -6.09 h 514.54 v 6.09 l -6.09,0.08 c -7.11,-488.57 -16.81,-1154.09 -16.81,-1154.09 l 6.09,-0.09 4.31,4.31 -830.63,830.62 -4.3,-4.3 4.24,-4.37 c 0,0 154.94,150.56 332.89,323.47 l -4.24,4.37 v -6.09 6.09"
         style="fill:#72c94b;fill-opacity:1;fill-rule:nonzero;stroke:none"
         id="path548" /><path
         d="m 2882.08,3124.32 629.01,-991.91 701.6,1314.49 z"
         style="fill:#41b258;fill-opacity:1;fill-rule:nonzero;stroke:none"
         id="path550" /><path
         d="m 2882.08,3124.32 -5.14,-3.26 634.61,-1000.73 712.91,1335.68 -1352.07,-327.77 4.55,-7.18 5.14,3.26 1.43,-5.91 1317.41,319.37 -690.28,-1293.28 -623.42,983.08 -5.14,-3.26 1.43,-5.91 -1.43,5.91"
         style="fill:#41b258;fill-opacity:1;fill-rule:nonzero;stroke:none"
         id="path552" /><path
         d="M 3503.03,4971.05 2882.08,3124.32 4212.69,3446.9 Z"
         style="fill:#4aba54;fill-opacity:1;fill-rule:nonzero;stroke:none"
         id="path554" /><path
         d="m 3503.03,4971.05 -5.77,1.94 -624.47,-1857.18 1348.56,326.92 -719.23,1544.71 -4.86,-14.45 5.77,-1.94 -5.52,-2.57 706.52,-1517.42 -1312.66,-318.22 617.43,1836.27 -5.77,1.94 -5.52,-2.57 5.52,2.57"
         style="fill:#4aba54;fill-opacity:1;fill-rule:nonzero;stroke:none"
         id="path556" /><path
         d="M 1704.69,4793.64 2882.08,3124.32 3503.03,4971.05 Z"
         style="fill:#58c253;fill-opacity:1;fill-rule:nonzero;stroke:none"
         id="path558" /><path
         d="m 1704.69,4793.64 -4.98,-3.51 L 2884.02,3111 3511.8,4978.03 1693.69,4798.67 l 6.02,-8.54 4.98,3.51 0.6,-6.06 1788.97,176.49 -614.12,-1826.43 -1170.48,1659.51 -4.97,-3.51 0.6,-6.06 -0.6,6.06"
         style="fill:#58c253;fill-opacity:1;fill-rule:nonzero;stroke:none"
         id="path560" /><path
         d="m 2882.08,3124.32 -862.89,-846.75 1491.9,-145.16 z"
         style="fill:#42b357;fill-opacity:1;fill-rule:nonzero;stroke:none"
         id="path562" /><path
         d="m 2882.08,3124.32 -4.26,4.35 -872.21,-855.9 1517.3,-147.62 -639.72,1008.79 -5.37,-5.27 4.26,-4.35 -5.14,-3.26 622.34,-981.38 -1466.51,142.69 853.57,837.61 -4.26,4.34 -5.14,-3.26 5.14,3.26"
         style="fill:#42b357;fill-opacity:1;fill-rule:nonzero;stroke:none"
         id="path564" /><path
         d="M 2019.19,2277.57 2793.37,842.121 3511.09,2132.41 Z"
         style="fill:#3daa58;fill-opacity:1;fill-rule:nonzero;stroke:none"
         id="path566" /><path
         d="m 2019.19,2277.57 -5.35,-2.89 779.45,-1445.231 727.64,1308.121 -1512.52,147.17 5.43,-10.06 5.35,2.89 -0.59,-6.06 1482.66,-144.26 -707.81,-1272.461 -768.9,1425.671 -5.36,-2.89 -0.59,-6.06 0.59,6.06"
         style="fill:#3daa58;fill-opacity:1;fill-rule:nonzero;stroke:none"
         id="path568" /><path
         d="m 2309.27,6125.15 c 195.3,-173.96 363.14,-323.47 363.14,-323.47 0,0 154.93,150.55 332.89,323.47 h -696.03"
         style="fill:#80ce48;fill-opacity:1;fill-rule:nonzero;stroke:none"
         id="path570" /><path
         d="m 2309.27,6125.15 -4.05,-4.55 c 195.3,-173.96 363.14,-323.46 363.14,-323.46 l 4.23,-3.77 4.06,3.94 c 0,0 154.94,150.56 332.89,323.47 l 10.76,10.45 h -727.02 l 11.94,-10.63 4.05,4.55 v -6.09 h 696.03 v 6.09 l -4.25,4.37 C 2823.1,5956.6 2668.16,5806.05 2668.16,5806.05 l 4.25,-4.37 4.05,4.55 c 0,0 -167.84,149.5 -363.14,323.47 l -4.05,-4.55 v -6.09 6.09"
         style="fill:#80ce48;fill-opacity:1;fill-rule:nonzero;stroke:none"
         id="path572" /><path
         d="m 2059.52,5503.3 -354.83,-709.66 1798.34,177.41 z"
         style="fill:#67c64f;fill-opacity:1;fill-rule:nonzero;stroke:none"
         id="path574" /><path
         d="m 2059.52,5503.3 -5.45,2.72 -359.76,-719.52 1809.32,178.49 1.51,11.77 -1448.63,534.13 -2.44,-4.87 5.45,-2.72 -2.11,-5.72 1418.65,-523.07 -1760.99,-173.73 349.89,699.79 -5.44,2.73 -2.11,-5.72 2.11,5.72"
         style="fill:#67c64f;fill-opacity:1;fill-rule:nonzero;stroke:none"
         id="path576" /><path
         d="M 2672.41,5801.68 2059.52,5503.3 3503.03,4971.05 Z"
         style="fill:#6dc84d;fill-opacity:1;fill-rule:nonzero;stroke:none"
         id="path578" /><path
         d="m 2672.41,5801.68 -2.67,5.48 -625.72,-304.64 1456.91,-537.18 6.41,10.02 -833.7,833.69 -3.9,-1.89 2.67,-5.48 -4.31,-4.3 811.01,-811.02 -1404.09,517.71 600.05,292.14 -2.66,5.47 -4.31,-4.3 4.31,4.3"
         style="fill:#6dc84d;fill-opacity:1;fill-rule:nonzero;stroke:none"
         id="path580" /><path
         d="m 1704.69,4793.64 266.12,-1645.12 911.27,-24.2 z"
         style="fill:#53c055;fill-opacity:1;fill-rule:nonzero;stroke:none"
         id="path582" /><path
         d="m 1704.69,4793.64 -6.01,-0.97 266.93,-1650.1 928.44,-24.66 -1184.39,1679.24 -10.98,-4.48 6.01,0.97 -4.98,-3.51 1170.4,-1659.4 -894.09,23.74 -265.32,1640.14 -6.01,-0.97 -4.98,-3.51 4.98,3.51"
         style="fill:#53c055;fill-opacity:1;fill-rule:nonzero;stroke:none"
         id="path584" /><path
         d="M 3338.64,6.05078 C 3186.09,239.961 2793.33,842.148 2793.33,842.148 c 0,0 -342.99,-533.07 -537.84,-836.09722 h 1083.15"
         style="fill:#3a904f;fill-opacity:1;fill-rule:nonzero;stroke:none"
         id="path586" /><path
         d="m 3338.64,6.05078 5.04,3.32813 C 3267.45,126.379 3131.1,335.359 3013.92,515.18 c -58.68,89.82 -112.5,172.441 -151.74,232.558 -19.53,30.063 -35.46,54.453 -46.53,71.371 -11.07,16.922 -17.19,26.282 -17.19,26.371 l -5.13,7.829 -5.04,-7.918 c 0,0 -342.99,-533.071 -537.93,-836.01209 l -6.03,-9.3593787 h 1105.56 l -6.21,9.3593787 -5.04,-3.32813 V 12.168 H 2255.49 V 6.05078 l 5.04,-3.24219 C 2358,154.281 2492.55,363.262 2602.62,534.441 c 55.08,85.59 104.04,161.637 139.23,216.36 17.64,27.359 31.77,49.32 41.49,64.527 9.81,15.211 15.12,23.492 15.12,23.492 l -5.13,3.328 -5.04,-3.328 c 0,-0.09 6.12,-9.449 17.19,-26.371 77.22,-118.437 394.56,-605.07 528.03,-809.73025 l 5.13,3.33203 V 12.168 6.05078"
         style="fill:#3a904f;fill-opacity:1;fill-rule:nonzero;stroke:none"
         id="path588" /><path
         d="m 2019.19,2277.57 88.71,-1483.832 685.47,48.383 z"
         style="fill:#40a655;fill-opacity:1;fill-rule:nonzero;stroke:none"
         id="path590" /><path
         d="m 2019.19,2277.57 -6.07,-0.36 89.07,-1489.972 701.02,49.473 -778.66,1443.749 -11.43,-3.25 6.07,0.36 -5.35,-2.89 769.69,-1427.149 -669.92,-47.281 -88.34,1477.68 -6.08,-0.36 -5.35,-2.89 5.35,2.89"
         style="fill:#40a655;fill-opacity:1;fill-rule:nonzero;stroke:none"
         id="path592" /><path
         d="M 2255.49,6.05078 C 2450.34,309.078 2793.33,842.148 2793.33,842.148 L 2107.89,793.73 c 0,0 8.1,-497.25 12.78,-787.67922 h 134.82"
         style="fill:#3d9851;fill-opacity:1;fill-rule:nonzero;stroke:none"
         id="path594" /><path
         d="m 2255.49,6.05078 5.04,-3.24219 C 2358,154.281 2492.55,363.262 2602.62,534.441 c 55.08,85.59 104.04,161.637 139.23,216.36 17.64,27.359 31.77,49.32 41.49,64.527 9.81,15.211 15.12,23.492 15.12,23.492 l 6.57,10.258 -703.35,-49.68 0.09,-5.757 c 0,0 8.1,-497.25 12.87,-787.68006 l 0.09,-5.9414087 h 144.09 l 1.71,2.7890587 -5.04,3.24219 V 12.168 H 2120.67 V 6.05078 l 6.12,0.08985 c -2.34,145.25737 -5.58,342.17937 -8.19,502.73837 -1.26,80.371 -2.43,151.562 -3.24,202.68 -0.45,25.652 -0.81,46.171 -0.99,60.39 -0.27,14.129 -0.36,21.871 -0.36,21.871 l -6.12,-0.09 0.45,-6.031 685.44,48.332 -0.45,6.117 -5.04,3.243 c 0,0 -342.99,-533.071 -537.93,-836.01209 l 5.13,-3.32813 V 12.168 6.05078"
         style="fill:#3d9851;fill-opacity:1;fill-rule:nonzero;stroke:none"
         id="path596" /><path
         d="m 1970.81,3148.52 48.38,-870.95 862.89,846.75 z"
         style="fill:#47ba56;fill-opacity:1;fill-rule:nonzero;stroke:none"
         id="path598" /><path
         d="m 1970.81,3148.52 -6.08,-0.34 49.13,-884.38 882.73,866.23 -932.23,24.75 0.37,-6.6 6.08,0.34 -0.16,-6.09 896.92,-23.81 -843.04,-827.29 -47.64,857.52 -6.08,-0.33 -0.16,-6.09 0.16,6.09"
         style="fill:#47ba56;fill-opacity:1;fill-rule:nonzero;stroke:none"
         id="path600" /><path
         d="m 1872.52,6125.15 c 90.99,-302.57 187,-621.85 187,-621.85 l 612.89,298.38 c 0,0 -167.84,149.51 -363.14,323.47 h -436.75"
         style="fill:#7ecd49;fill-opacity:1;fill-rule:nonzero;stroke:none"
         id="path602" /><path
         d="m 1872.52,6125.15 -5.83,-1.76 c 90.99,-302.56 187,-621.85 187,-621.85 l 2.06,-6.85 627.49,305.49 -6.78,6.05 c 0,0 -167.84,149.5 -363.14,323.47 l -1.73,1.53 h -447.25 l 2.35,-7.84 5.83,1.76 v -6.09 h 436.75 v 6.09 l -4.05,-4.55 c 195.3,-173.96 363.14,-323.46 363.14,-323.46 l 4.05,4.54 -2.67,5.48 -612.89,-298.39 2.67,-5.47 5.83,1.75 c 0,0 -96.01,319.29 -187,621.85 l -5.83,-1.75 v -6.09 6.09"
         style="fill:#7ecd49;fill-opacity:1;fill-rule:nonzero;stroke:none"
         id="path604" /><path
         d="M 1704.69,4793.64 688.578,4680.74 1970.81,3148.52 Z"
         style="fill:#64c550;fill-opacity:1;fill-rule:nonzero;stroke:none"
         id="path606" /><path
         d="m 1704.69,4793.64 -0.67,6.05 -1027.395,-114.15 1303.735,-1557.92 -270.59,1672.71 -5.75,-0.64 0.67,-6.05 -6.01,-0.97 262.58,-1623.26 -1260.729,1506.53 1004.829,111.65 -0.67,6.05 -6.01,-0.97 6.01,0.97"
         style="fill:#64c550;fill-opacity:1;fill-rule:nonzero;stroke:none"
         id="path608" /><path
         d="m 1420.71,6125.15 c -144.58,-263.06 -288.59,-525.08 -288.59,-525.08 l 927.4,-96.77 c 0,0 -96.01,319.28 -187,621.85 h -451.81"
         style="fill:#80ce48;fill-opacity:1;fill-rule:nonzero;stroke:none"
         id="path610" /><path
         d="m 1420.71,6125.15 -5.33,2.93 C 1270.79,5865.02 1126.78,5603 1126.78,5603 l -4.41,-8.04 945.61,-98.67 -2.63,8.76 c 0,0 -96.01,319.29 -187,621.85 l -1.3,4.33 h -459.94 l -1.73,-3.15 5.33,-2.93 v -6.09 h 451.81 v 6.09 l -5.83,-1.76 c 90.99,-302.56 187,-621.85 187,-621.85 l 5.83,1.76 0.63,6.05 -927.4,96.78 -0.63,-6.06 5.33,-2.93 c 0,0 144.01,262.02 288.6,525.07 l -5.34,2.94 v -6.09 6.09"
         style="fill:#80ce48;fill-opacity:1;fill-rule:nonzero;stroke:none"
         id="path612" /><path
         d="M 2019.19,2277.57 777.289,987.281 2107.9,793.738 Z"
         style="fill:#46aa53;fill-opacity:1;fill-rule:nonzero;stroke:none"
         id="path614" /><path
         d="m 2019.19,2277.57 -4.38,4.22 L 764.684,982.961 2114.42,786.641 2024.44,2291.8 l -9.63,-10.01 4.38,-4.22 -6.07,-0.36 88.26,-1476.37 -1311.482,190.762 1233.682,1281.748 -4.39,4.22 -6.07,-0.36 6.07,0.36"
         style="fill:#46aa53;fill-opacity:1;fill-rule:nonzero;stroke:none"
         id="path616" /><path
         d="M 2120.71,6.08984 C 2115.99,296.449 2107.9,793.738 2107.9,793.738 L 777.289,987.281 c 0,0 729.501,-642.133 1114.691,-981.19116 h 228.73"
         style="fill:#449c4e;fill-opacity:1;fill-rule:nonzero;stroke:none"
         id="path618" /><path
         d="m 2120.71,6.08984 6.09,0.08985 c -2.36,145.19131 -5.57,342.10131 -8.18,502.71831 -1.3,80.313 -2.46,151.543 -3.29,202.704 -0.42,25.578 -0.75,46.136 -0.99,60.308 -0.23,14.16 -0.35,21.91 -0.35,21.93 l -0.09,5.18 -1356.017,197.23 15.383,-13.539 c 0.035,-0.031 11.398,-10.043 32.097,-28.262 C 950.262,826.91 1550.91,298.199 1887.96,1.51953 L 1889.68,0 h 237.22 l -0.1,6.17969 -6.09,-0.08985 V 12.168 H 1891.98 V 6.08984 l 4.03,4.57036 C 1703.41,180.191 1424.73,425.48 1194.21,628.398 1078.95,729.859 975.723,820.719 901.316,886.219 c -37.207,32.75 -67.207,59.152 -87.906,77.371 -20.699,18.219 -32.066,28.23 -32.097,28.262 l -4.024,-4.571 -0.875,-6.031 1330.606,-193.531 0.88,6.019 -6.09,-0.097 c 0,0 8.09,-497.289 12.82,-787.65272 l 6.08,0.10156 V 12.168 6.08984"
         style="fill:#449c4e;fill-opacity:1;fill-rule:nonzero;stroke:none"
         id="path620" /><path
         d="M 688.578,4680.74 245.051,3196.9 1970.81,3148.52 Z"
         style="fill:#61c450;fill-opacity:1;fill-rule:nonzero;stroke:none"
         id="path622" /><path
         d="m 688.578,4680.74 -5.832,1.74 -445.805,-1491.44 1747.219,-48.99 -1298.176,1551.27 -3.238,-10.84 5.832,-1.74 -4.668,-3.91 1273.55,-1521.85 -1704.304,47.78 441.258,1476.24 -5.836,1.74 -4.668,-3.91 4.668,3.91"
         style="fill:#61c450;fill-opacity:1;fill-rule:nonzero;stroke:none"
         id="path624" /><path
         d="M 599.879,2301.76 777.289,987.281 2019.19,2277.57 Z"
         style="fill:#4cb653;fill-opacity:1;fill-rule:nonzero;stroke:none"
         id="path626" /><path
         d="m 599.879,2301.76 -6.035,-0.82 179.097,-1326.96 1260.339,1309.44 -1440.385,24.55 0.949,-7.03 6.035,0.82 -0.106,-6.09 L 2005.11,2271.72 781.641,1000.58 605.91,2302.57 l -6.031,-0.81 -0.106,-6.09 0.106,6.09"
         style="fill:#4cb653;fill-opacity:1;fill-rule:nonzero;stroke:none"
         id="path628" /><path
         d="M 1891.98,6.08984 C 1506.79,345.148 777.289,987.281 777.289,987.281 c 0,0 -35.262,-564.23 -61.328,-981.19116 H 1891.98"
         style="fill:#48964b;fill-opacity:1;fill-rule:nonzero;stroke:none"
         id="path630" /><path
         d="m 1891.98,6.08984 4.03,4.57036 C 1703.41,180.191 1424.73,425.48 1194.21,628.398 1078.95,729.859 975.723,820.719 901.316,886.219 c -37.207,32.75 -67.207,59.152 -87.906,77.371 -20.699,18.219 -32.066,28.23 -32.097,28.262 l -9.325,8.198 -0.773,-12.39 c -0.004,-0.031 -0.555,-8.82 -1.567,-25.058 C 762.539,848.898 732.691,371.309 709.887,6.46875 L 709.48,0 h 1198.63 l -12.1,10.6602 -4.03,-4.57036 V 12.168 H 715.961 V 6.08984 l 6.078,-0.3789 C 735.07,214.191 750.402,459.48 762.477,652.66 c 6.039,96.59 11.257,180.149 14.972,239.559 1.856,29.711 3.336,53.383 4.352,69.621 1.015,16.238 1.562,25.031 1.566,25.058 l -6.078,0.383 -4.023,-4.57 c 0.035,-0.031 11.398,-10.043 32.097,-28.262 C 950.262,826.91 1550.91,298.199 1887.96,1.51953 l 4.02,4.57031 V 12.168 6.08984"
         style="fill:#48964b;fill-opacity:1;fill-rule:nonzero;stroke:none"
         id="path632" /><path
         d="M 1970.81,3148.52 599.879,2301.76 2019.19,2277.57 Z"
         style="fill:#4dbc53;fill-opacity:1;fill-rule:nonzero;stroke:none"
         id="path634" /><path
         d="m 1970.81,3148.52 -3.2,5.18 -1388.602,-857.67 1446.632,-24.66 -49.32,887.71 -8.71,-5.38 3.2,-5.18 -6.08,-0.34 48.02,-864.41 -1392.004,23.72 1353.264,835.85 -3.2,5.18 -6.08,-0.34 6.08,0.34"
         style="fill:#4dbc53;fill-opacity:1;fill-rule:nonzero;stroke:none"
         id="path636" /><path
         d="m 1132.12,5600.07 572.57,-806.43 354.83,709.66 z"
         style="fill:#74ca4b;fill-opacity:1;fill-rule:nonzero;stroke:none"
         id="path638" /><path
         d="m 1132.12,5600.07 -4.97,-3.53 578.45,-814.7 363.3,726.6 -949.54,99.08 7.79,-10.98 4.97,3.53 -0.63,-6.05 918.65,-95.87 -346.36,-692.71 -566.7,798.15 -4.96,-3.52 -0.63,-6.05 0.63,6.05"
         style="fill:#74ca4b;fill-opacity:1;fill-rule:nonzero;stroke:none"
         id="path640" /><path
         d="M 245.051,3196.9 599.879,2301.76 1970.81,3148.52 Z"
         style="fill:#56c152;fill-opacity:1;fill-rule:nonzero;stroke:none"
         id="path642" /><path
         d="m 245.051,3196.9 -5.66,-2.24 357.504,-901.9 1394.435,861.27 -1755.346,49.22 3.407,-8.59 5.66,2.24 -0.172,-6.09 L 1950.29,3143 602.859,2310.76 l -352.148,888.38 -5.66,-2.24 -0.172,-6.09 0.172,6.09"
         style="fill:#56c152;fill-opacity:1;fill-rule:nonzero;stroke:none"
         id="path644" /><path
         d="M 1132.12,5600.07 688.578,4680.74 1704.69,4793.64 Z"
         style="fill:#73ca4b;fill-opacity:1;fill-rule:nonzero;stroke:none"
         id="path646" /><path
         d="m 1132.12,5600.07 -5.48,2.64 -448.327,-929.24 1037.327,115.26 -584.52,823.27 -4.48,-9.29 5.48,-2.64 -4.97,-3.53 566.58,-797.99 -994.886,-110.54 438.756,909.42 -5.48,2.64 -4.97,-3.53 4.97,3.53"
         style="fill:#73ca4b;fill-opacity:1;fill-rule:nonzero;stroke:none"
         id="path648" /><path
         d="m 991.477,6125.15 c 79.143,-295.49 140.643,-525.08 140.643,-525.08 0,0 144.01,262.02 288.59,525.08 H 991.477"
         style="fill:#82ce47;fill-opacity:1;fill-rule:nonzero;stroke:none"
         id="path650" /><path
         d="m 991.477,6125.15 -5.883,-1.58 c 79.146,-295.48 140.646,-525.07 140.646,-525.08 l 3.92,-14.63 7.29,13.28 c 0,0 144.01,262.02 288.6,525.07 l 4.96,9.02 H 983.539 l 2.055,-7.66 5.883,1.58 v -6.09 h 429.233 v 6.09 l -5.33,2.93 C 1270.79,5865.02 1126.78,5603 1126.78,5603 l 5.34,-2.93 5.88,1.57 c 0,0 -61.5,229.6 -140.645,525.08 l -5.878,-1.57 v -6.09 6.09"
         style="fill:#82ce47;fill-opacity:1;fill-rule:nonzero;stroke:none"
         id="path652" /><path
         d="M 6.08984,3751.77 C 125.391,3474.75 245.051,3196.9 245.051,3196.9 l 443.527,1483.84 c 0,0 -410.098,-169.08 -682.48816,-281.38 v -647.59"
         style="fill:#6ec84d;fill-opacity:1;fill-rule:nonzero;stroke:none"
         id="path654" /><path
         d="m 6.08984,3751.77 -5.593746,-2.4 C 119.801,3472.34 239.457,3194.49 239.457,3194.49 l 6.629,-15.39 451.984,1512.14 -11.812,-4.87 c 0,0 -410.098,-169.08 -682.48847,-281.38 L 0,4403.43 v -652.91 l 0.496094,-1.15 5.593746,2.4 h 6.08596 v 647.59 H 6.08984 l 2.32032,-5.63 C 280.801,4506.03 690.898,4675.11 690.898,4675.11 l -2.32,5.63 -5.832,1.74 -443.531,-1483.84 5.836,-1.74 5.59,2.41 c 0,0 -119.657,277.85 -238.9613,554.87 l -5.58986,-2.41 H 12.1758 6.08984"
         style="fill:#6ec84d;fill-opacity:1;fill-rule:nonzero;stroke:none"
         id="path656" /><path
         d="M 715.961,6.08984 C 742.027,423.051 777.289,987.281 777.289,987.281 c 0,0 -444.699,-616.98 -707.2187,-981.19116 H 715.961"
         style="fill:#519a47;fill-opacity:1;fill-rule:nonzero;stroke:none"
         id="path658" /><path
         d="m 715.961,6.08984 6.078,-0.3789 C 735.07,214.191 750.402,459.48 762.477,652.66 c 6.039,96.59 11.257,180.149 14.972,239.559 1.856,29.711 3.336,53.383 4.352,69.621 1.015,16.238 1.562,25.031 1.566,25.058 l 1.317,21.052 -12.332,-17.11 c 0,0 -6.95,-9.641 -19.622,-27.219 C 664.023,840.539 294.836,328.34 65.1289,9.64844 L 58.1758,0 H 721.684 l 0.355,5.71094 -6.078,0.3789 V 12.168 H 70.0703 V 6.08984 L 75.0078,2.53125 C 337.527,366.738 782.23,983.719 782.23,983.719 l -4.941,3.562 -6.074,0.379 c -0.004,-0.031 -0.555,-8.82 -1.567,-25.058 C 762.539,848.898 732.691,371.309 709.887,6.46875 l 6.074,-0.37891 V 12.168 6.08984"
         style="fill:#519a47;fill-opacity:1;fill-rule:nonzero;stroke:none"
         id="path660" /><path
         d="M 6.08984,5503.9 C 309.988,5137.36 688.578,4680.74 688.578,4680.74 l 443.542,919.33 c 0,0 -681.768,161.28 -1126.03016,266.38 V 5503.9"
         style="fill:#80ce46;fill-opacity:1;fill-rule:nonzero;stroke:none"
         id="path662" /><path
         d="m 6.08984,5503.9 -4.6875,-3.89 C 305.305,5133.47 683.891,4676.85 683.891,4676.85 l 6.05,-7.3 450.959,934.7 -7.38,1.75 c 0,0 -681.766,161.27 -1126.02781,266.37 L 0,5874.14 V 5501.7 l 1.40234,-1.69 4.6875,3.89 h 6.08596 v 362.55 H 6.08984 L 4.6875,5860.52 C 448.949,5755.43 1130.72,5594.14 1130.72,5594.14 l 1.4,5.93 -5.48,2.64 -443.546,-919.33 5.484,-2.64 4.688,3.88 c 0,0.01 -378.59,456.63 -682.4887,823.16 L 6.08984,5503.9 H 12.1758 6.08984"
         style="fill:#80ce46;fill-opacity:1;fill-rule:nonzero;stroke:none"
         id="path664" /><path
         d="m 6.08984,6125.15 c 0,-136.28 0,-258.7 0,-258.7 C 450.352,5761.35 1132.12,5600.07 1132.12,5600.07 c 0,0 -61.5,229.59 -140.643,525.08 H 6.08984"
         style="fill:#82ce46;fill-opacity:1;fill-rule:nonzero;stroke:none"
         id="path666" /><path
         d="M 6.08984,6125.15 H 0 c 0,-136.28 0,-258.7 0,-258.7 v -4.82 l 4.6875,-1.11 C 448.949,5755.43 1130.72,5594.14 1130.72,5594.14 l 9.92,-2.34 -2.64,9.84 c 0,0 -61.5,229.6 -140.645,525.08 l -1.207,4.51 H 0 v -6.08 h 6.08984 v -6.09 H 991.477 v 6.09 l -5.883,-1.58 c 79.146,-295.48 140.646,-525.07 140.646,-525.08 l 5.88,1.58 1.4,5.93 c 0,0 -681.766,161.27 -1126.02781,266.37 l -1.40235,-5.92 h 6.08596 c 0,0 0,122.42 0,258.7 H 6.08984 v -6.09 6.09"
         style="fill:#82ce46;fill-opacity:1;fill-rule:nonzero;stroke:none"
         id="path668" /><path
         d="M 6.08984,4399.36 C 278.48,4511.66 688.578,4680.74 688.578,4680.74 c 0,0 -378.59,456.62 -682.48816,823.16 V 4399.36"
         style="fill:#7dcd47;fill-opacity:1;fill-rule:nonzero;stroke:none"
         id="path670" /><path
         d="m 6.08984,4399.36 2.32032,-5.63 C 280.801,4506.03 690.898,4675.11 690.898,4675.11 l 7.645,3.15 -5.277,6.36 c 0,0 -378.59,456.63 -682.4887,823.17 L 0,5520.79 V 4390.26 l 8.41016,3.47 -2.32032,5.63 H 12.1758 V 5503.9 H 6.08984 l -4.6875,-3.88 C 305.305,5133.47 683.891,4676.85 683.891,4676.85 l 4.687,3.89 -2.32,5.63 c 0,0 -410.098,-169.08 -682.48847,-281.38 l 2.32031,-5.63 H 12.1758 6.08984"
         style="fill:#7dcd47;fill-opacity:1;fill-rule:nonzero;stroke:none"
         id="path672" /><path
         d="M 70.0703,6.08984 C 332.59,370.301 777.289,987.281 777.289,987.281 c 0,0 -379.473,47.189 -771.19916,95.909 0,0 0,-804.85 0,-1077.10016 H 70.0703"
         style="fill:#57a749;fill-opacity:1;fill-rule:nonzero;stroke:none"
         id="path674" /><path
         d="M 70.0703,6.08984 75.0078,2.53125 C 337.527,366.738 782.23,983.719 782.23,983.719 l 6.004,8.332 -10.191,1.269 c 0,0 -379.473,47.2 -771.20316,95.92 L 0,1090.09 v -6.9 c 0,0 0,-804.85 0,-1077.10016 V 0 h 73.1836 l 1.8242,2.53125 -4.9375,3.55859 V 12.168 H 6.08984 V 6.08984 h 6.08596 c 0,136.12116 0,405.39816 0,640.64816 0,117.621 0,226.731 0,306.442 0,39.859 0,72.36 0,94.9 0,22.54 0,35.08 0,35.11 H 6.08984 l -0.7539,-6.04 C 397.066,1028.43 776.539,981.23 776.539,981.23 l 0.75,6.051 -4.937,3.559 c 0,0 -6.95,-9.641 -19.622,-27.219 C 664.023,840.539 294.836,328.34 65.1289,9.64844 l 4.9414,-3.5586 V 12.168 6.08984"
         style="fill:#57a749;fill-opacity:1;fill-rule:nonzero;stroke:none"
         id="path676" /><path
         d="M 6.08984,1379.01 C 390.145,1183.93 777.289,987.281 777.289,987.281 L 599.879,2301.76 c 0,0 -285.621,-114.59 -593.78916,-238.22 v -684.53"
         style="fill:#54b84f;fill-opacity:1;fill-rule:nonzero;stroke:none"
         id="path678" /><path
         d="m 6.08984,1379.01 -2.75781,-5.43 C 387.391,1178.5 774.531,981.852 774.531,981.852 l 10.344,-5.262 -180.008,1333.73 -7.258,-2.91 c 0,0 -285.617,-114.59 -593.78869,-238.22 L 0,2067.65 v -692.38 l 3.33203,-1.69 2.75781,5.43 h 6.08596 v 684.53 H 6.08984 l 2.26563,-5.65 C 316.523,2181.52 602.145,2296.11 602.145,2296.11 l -2.266,5.65 -6.035,-0.82 177.414,-1314.479 6.031,0.82 2.758,5.43 c 0,0 -387.145,196.649 -771.19934,391.719 l -2.75782,-5.42 H 12.1758 6.08984"
         style="fill:#54b84f;fill-opacity:1;fill-rule:nonzero;stroke:none"
         id="path680" /><path
         d="M 6.08984,1083.19 C 397.816,1034.47 777.289,987.281 777.289,987.281 c 0,0 -387.144,196.649 -771.19916,391.729 v -295.82"
         style="fill:#5bb34b;fill-opacity:1;fill-rule:nonzero;stroke:none"
         id="path682" /><path
         d="m 6.08984,1083.19 -0.7539,-6.04 C 397.066,1028.43 776.539,981.23 776.539,981.23 l 3.508,11.481 c 0,0 -387.145,196.649 -771.19934,391.719 L 0,1388.93 v -311.11 l 5.33594,-0.67 0.7539,6.04 h 6.08596 v 295.82 H 6.08984 l -2.75781,-5.43 C 387.391,1178.5 774.531,981.852 774.531,981.852 l 2.758,5.429 0.754,6.039 c 0,0 -379.473,47.2 -771.20316,95.92 l -0.75,-6.05 H 12.1758 6.08984"
         style="fill:#5bb34b;fill-opacity:1;fill-rule:nonzero;stroke:none"
         id="path684" /><path
         d="M 6.08984,2656.33 C 296.977,2482.63 599.879,2301.76 599.879,2301.76 L 245.051,3196.9 c 0,0 -105.906,-31.21 -238.96116,-70.43 v -470.14"
         style="fill:#60c44e;fill-opacity:1;fill-rule:nonzero;stroke:none"
         id="path686" /><path
         d="M 6.08984,2656.33 2.96875,2651.1 C 293.855,2477.4 596.758,2296.53 596.758,2296.53 l 15.383,-9.18 -363.481,916.96 -5.332,-1.57 c 0,0 -105.902,-31.21 -238.96081,-70.43 L 0,3131.02 v -478.15 l 2.96875,-1.77 3.12109,5.23 h 6.08596 v 470.14 H 6.08984 l 1.71875,-5.84 C 140.867,3159.85 246.77,3191.06 246.77,3191.06 l -1.719,5.84 -5.66,-2.24 354.828,-895.14 5.66,2.24 3.121,5.23 c 0,0 -302.902,180.87 -593.78906,354.57 l -3.1211,-5.23 H 12.1758 6.08984"
         style="fill:#60c44e;fill-opacity:1;fill-rule:nonzero;stroke:none"
         id="path688" /><path
         d="M 6.08984,2063.54 C 314.258,2187.17 599.879,2301.76 599.879,2301.76 c 0,0 -302.902,180.87 -593.78916,354.57 v -592.79"
         style="fill:#60c24d;fill-opacity:1;fill-rule:nonzero;stroke:none"
         id="path690" /><path
         d="m 6.08984,2063.54 2.26563,-5.65 C 316.523,2181.52 602.145,2296.11 602.145,2296.11 l 11.41,4.58 -10.555,6.3 c 0,0 -302.902,180.87 -593.78906,354.57 L 0,2667.06 v -612.53 l 8.35547,3.36 -2.26563,5.65 h 6.08596 v 592.79 H 6.08984 L 2.96875,2651.1 C 293.855,2477.4 596.758,2296.53 596.758,2296.53 l 3.121,5.23 -2.27,5.65 c 0,0 -285.617,-114.59 -593.78869,-238.22 l 2.26953,-5.65 H 12.1758 6.08984"
         style="fill:#60c24d;fill-opacity:1;fill-rule:nonzero;stroke:none"
         id="path692" /><path
         d="m 6.08984,3126.47 c 133.05516,39.22 238.96116,70.43 238.96116,70.43 0,0 -119.66,277.85 -238.96116,554.87 v -625.3"
         style="fill:#6bc74e;fill-opacity:1;fill-rule:nonzero;stroke:none"
         id="path694" /><path
         d="m 6.08984,3126.47 1.71875,-5.84 C 140.867,3159.85 246.77,3191.06 246.77,3191.06 l 6.585,1.94 -2.714,6.31 c 0,0 -119.657,277.85 -238.9613,554.87 L 0,3751.77 v -633.44 l 7.80859,2.3 -1.71875,5.84 h 6.08596 v 625.3 H 6.08984 l -5.593746,-2.4 C 119.801,3472.34 239.457,3194.49 239.457,3194.49 l 5.594,2.41 -1.723,5.84 c 0,0 -105.902,-31.21 -238.96081,-70.43 l 1.72265,-5.84 H 12.1758 6.08984"
         style="fill:#6bc74e;fill-opacity:1;fill-rule:nonzero;stroke:none"
         id="path696" /></g></g></svg>
