<?xml version="1.0" encoding="UTF-8" standalone="no"?>
<svg
   xmlns:dc="http://purl.org/dc/elements/1.1/"
   xmlns:cc="http://creativecommons.org/ns#"
   xmlns:rdf="http://www.w3.org/1999/02/22-rdf-syntax-ns#"
   xmlns:svg="http://www.w3.org/2000/svg"
   xmlns="http://www.w3.org/2000/svg"
   xmlns:sodipodi="http://sodipodi.sourceforge.net/DTD/sodipodi-0.dtd"
   xmlns:inkscape="http://www.inkscape.org/namespaces/inkscape"
   inkscape:version="1.0 (4035a4fb49, 2020-05-01)"
   sodipodi:docname="5.svg"
   version="1.1"
   id="svg2"
   xml:space="preserve"
   width="794.32416"
   height="1123.266"
   viewBox="0 0 794.32415 1123.266"><sodipodi:namedview
     inkscape:current-layer="g12"
     inkscape:window-maximized="1"
     inkscape:window-y="-9"
     inkscape:window-x="-9"
     inkscape:cy="539.86093"
     inkscape:cx="396.57791"
     inkscape:zoom="0.71114413"
     showgrid="false"
     id="namedview347"
     inkscape:window-height="1271"
     inkscape:window-width="2400"
     inkscape:pageshadow="2"
     inkscape:pageopacity="0"
     guidetolerance="10"
     gridtolerance="10"
     objecttolerance="10"
     borderopacity="1"
     bordercolor="#666666"
     pagecolor="#ffffff" /><metadata
     id="metadata8"><rdf:RDF><cc:Work
         rdf:about=""><dc:format>image/svg+xml</dc:format><dc:type
           rdf:resource="http://purl.org/dc/dcmitype/StillImage" /></cc:Work></rdf:RDF></metadata><defs
     id="defs6" /><g
     id="g10"
     transform="matrix(1.3333333,0,0,-1.3333333,-1.828766,1123.4276)"><g
       id="g12"
       transform="scale(0.1)"><path
         d="m 5967.23,6506.21 c -170.66,-188.85 -294.93,-326.36 -294.93,-326.36 0,0 145.69,-98.78 294.93,-199.96 v 526.32"
         style="fill:#2f6f86;fill-opacity:1;fill-rule:nonzero;stroke:none"
         id="path14" /><path
         d="m 5967.23,6506.21 c -170.66,-188.85 -294.93,-326.36 -294.93,-326.36 0,0 145.69,-98.78 294.93,-199.96 z"
         style="fill:none;stroke:#2f6f86;stroke-width:7.83411;stroke-linecap:butt;stroke-linejoin:miter;stroke-miterlimit:4;stroke-dasharray:none;stroke-opacity:1"
         id="path16" /><path
         d="m 5967.23,7605.55 c -247.68,6.35 -445.4,11.42 -445.4,11.42 L 5672.3,6179.85 c 0,0 124.27,137.51 294.93,326.36 v 1099.34"
         style="fill:#2a5f7c;fill-opacity:1;fill-rule:nonzero;stroke:none"
         id="path18" /><path
         d="m 5967.23,7605.55 c -247.68,6.35 -445.4,11.42 -445.4,11.42 L 5672.3,6179.85 c 0,0 124.27,137.51 294.93,326.36 z"
         style="fill:none;stroke:#2a5f7c;stroke-width:7.83411;stroke-linecap:butt;stroke-linejoin:miter;stroke-miterlimit:4;stroke-dasharray:none;stroke-opacity:1"
         id="path20" /><path
         d="m 5967.23,5045.66 c -42.53,-96.41 -71.84,-162.85 -71.84,-162.85 0,0 26.58,-7.34 71.84,-19.82 v 182.67"
         style="fill:#3c94b1;fill-opacity:1;fill-rule:nonzero;stroke:none"
         id="path22" /><path
         d="m 5967.23,5045.66 c -42.53,-96.41 -71.84,-162.85 -71.84,-162.85 0,0 26.58,-7.34 71.84,-19.82 z"
         style="fill:none;stroke:#3c94b1;stroke-width:7.83411;stroke-linecap:butt;stroke-linejoin:miter;stroke-miterlimit:4;stroke-dasharray:none;stroke-opacity:1"
         id="path24" /><path
         d="m 5967.23,3563.02 c -6.28,-5.48 -9.6,-8.38 -9.6,-8.38 0,0 3.32,0.26 9.6,0.73 v 7.65"
         style="fill:#3d98bd;fill-opacity:1;fill-rule:nonzero;stroke:none"
         id="path26" /><path
         d="m 5967.23,3563.02 c -6.28,-5.48 -9.6,-8.38 -9.6,-8.38 0,0 3.32,0.26 9.6,0.73 z"
         style="fill:none;stroke:#3d98bd;stroke-width:7.83411;stroke-linecap:butt;stroke-linejoin:miter;stroke-miterlimit:4;stroke-dasharray:none;stroke-opacity:1"
         id="path28" /><path
         d="m 5967.23,4862.99 c -45.26,12.48 -71.84,19.82 -71.84,19.82 l 62.24,-1328.17 c 0,0 3.32,2.9 9.6,8.38 v 1299.97"
         style="fill:#42a2c6;fill-opacity:1;fill-rule:nonzero;stroke:none"
         id="path30" /><path
         d="m 5967.23,4862.99 c -45.26,12.48 -71.84,19.82 -71.84,19.82 l 62.24,-1328.17 c 0,0 3.32,2.9 9.6,8.38 z"
         style="fill:none;stroke:#42a2c6;stroke-width:7.83411;stroke-linecap:butt;stroke-linejoin:miter;stroke-miterlimit:4;stroke-dasharray:none;stroke-opacity:1"
         id="path32" /><path
         d="m 5967.23,2559.69 c -396.68,35.48 -741.12,66.28 -741.12,66.28 0,0 417.04,-614.9 741.12,-1092.73 v 1026.45"
         style="fill:#3785bf;fill-opacity:1;fill-rule:nonzero;stroke:none"
         id="path34" /><path
         d="m 5967.23,2559.69 c -396.68,35.48 -741.12,66.28 -741.12,66.28 0,0 417.04,-614.9 741.12,-1092.73 z"
         style="fill:none;stroke:#3785bf;stroke-width:7.83411;stroke-linecap:butt;stroke-linejoin:miter;stroke-miterlimit:4;stroke-dasharray:none;stroke-opacity:1"
         id="path36" /><path
         d="m 5967.23,3545.72 c -6.28,5.84 -9.6,8.92 -9.6,8.92 l -731.52,-928.67 c 0,0 344.44,-30.8 741.12,-66.28 v 986.03"
         style="fill:#3e99c9;fill-opacity:1;fill-rule:nonzero;stroke:none"
         id="path38" /><path
         d="m 5967.23,3545.72 c -6.28,5.84 -9.6,8.92 -9.6,8.92 l -731.52,-928.67 c 0,0 344.44,-30.8 741.12,-66.28 z"
         style="fill:none;stroke:#3e99c9;stroke-width:7.83411;stroke-linecap:butt;stroke-linejoin:miter;stroke-miterlimit:4;stroke-dasharray:none;stroke-opacity:1"
         id="path40" /><path
         d="m 5967.23,3555.37 c -6.28,-0.47 -9.6,-0.73 -9.6,-0.73 0,0 3.32,-3.08 9.6,-8.92 v 9.65"
         style="fill:#3a91bb;fill-opacity:1;fill-rule:nonzero;stroke:none"
         id="path42" /><path
         d="m 5967.23,3555.37 c -6.28,-0.47 -9.6,-0.73 -9.6,-0.73 0,0 3.32,-3.08 9.6,-8.92 z"
         style="fill:none;stroke:#3a91bb;stroke-width:7.83411;stroke-linecap:butt;stroke-linejoin:miter;stroke-miterlimit:4;stroke-dasharray:none;stroke-opacity:1"
         id="path44" /><path
         d="m 5967.23,7791.25 c -251.08,-98.25 -445.4,-174.28 -445.4,-174.28 0,0 197.72,-5.07 445.4,-11.42 v 185.7"
         style="fill:#1e435f;fill-opacity:1;fill-rule:nonzero;stroke:none"
         id="path46" /><path
         d="m 5967.23,7791.25 c -251.08,-98.25 -445.4,-174.28 -445.4,-174.28 0,0 197.72,-5.07 445.4,-11.42 z"
         style="fill:none;stroke:#1e435f;stroke-width:7.83411;stroke-linecap:butt;stroke-linejoin:miter;stroke-miterlimit:4;stroke-dasharray:none;stroke-opacity:1"
         id="path48" /><path
         d="m 5967.23,8421.79 c -195.73,0 -381.64,0 -381.64,0 -24.52,-309.6 -63.76,-804.82 -63.76,-804.82 0,0 194.32,76.03 445.4,174.28 v 630.54"
         style="fill:#1d4264;fill-opacity:1;fill-rule:nonzero;stroke:none"
         id="path50" /><path
         d="m 5967.23,8421.79 c -195.73,0 -381.64,0 -381.64,0 -24.52,-309.6 -63.76,-804.82 -63.76,-804.82 0,0 194.32,76.03 445.4,174.28 z"
         style="fill:none;stroke:#1d4264;stroke-width:7.83411;stroke-linecap:butt;stroke-linejoin:miter;stroke-miterlimit:4;stroke-dasharray:none;stroke-opacity:1"
         id="path52" /><path
         d="m 5967.23,5.12891 c 0,118.29309 0,576.91009 0,576.91009 C 5745.94,346 5495.75,79.1289 5426.37,5.12891 h 540.86"
         style="fill:#295aa8;fill-opacity:1;fill-rule:nonzero;stroke:none"
         id="path54" /><path
         d="m 5967.23,5.12891 c 0,118.29309 0,576.91009 0,576.91009 C 5745.94,346 5495.75,79.1289 5426.37,5.12891 Z"
         style="fill:none;stroke:#295aa8;stroke-width:7.83411;stroke-linecap:butt;stroke-linejoin:miter;stroke-miterlimit:4;stroke-dasharray:none;stroke-opacity:1"
         id="path56" /><path
         d="M 5297.16,5.12891 C 4988.84,60.7305 4141.79,213.48 4141.79,213.48 c 0,0 -201.71,-91.621 -458.68,-208.35109 h 1614.05"
         style="fill:#3173b1;fill-opacity:1;fill-rule:nonzero;stroke:none"
         id="path58" /><path
         d="M 5297.16,5.12891 C 4988.84,60.7305 4141.79,213.48 4141.79,213.48 c 0,0 -201.71,-91.621 -458.68,-208.35109 z"
         style="fill:none;stroke:#3173b1;stroke-width:7.83411;stroke-linecap:butt;stroke-linejoin:miter;stroke-miterlimit:4;stroke-dasharray:none;stroke-opacity:1"
         id="path60" /><path
         d="M 5426.37,5.12891 C 5495.75,79.1289 5745.94,346 5967.23,582.039 v 377.75 c -343.13,-19.738 -798.19,-45.91 -798.19,-45.91 0,0 198.87,-773.867 233.53,-908.75009 h 23.8"
         style="fill:#306db9;fill-opacity:1;fill-rule:nonzero;stroke:none"
         id="path62" /><path
         d="M 5426.37,5.12891 C 5495.75,79.1289 5745.94,346 5967.23,582.039 v 377.75 c -343.13,-19.738 -798.19,-45.91 -798.19,-45.91 0,0 198.87,-773.867 233.53,-908.75009 z"
         style="fill:none;stroke:#306db9;stroke-width:7.83411;stroke-linecap:butt;stroke-linejoin:miter;stroke-miterlimit:4;stroke-dasharray:none;stroke-opacity:1"
         id="path64" /><path
         d="m 5967.23,1533.24 c -324.08,477.83 -741.12,1092.73 -741.12,1092.73 L 5169.04,913.879 c 0,0 455.06,26.172 798.19,45.91 v 573.451"
         style="fill:#3985c3;fill-opacity:1;fill-rule:nonzero;stroke:none"
         id="path66" /><path
         d="m 5967.23,1533.24 c -324.08,477.83 -741.12,1092.73 -741.12,1092.73 L 5169.04,913.879 c 0,0 455.06,26.172 798.19,45.91 z"
         style="fill:none;stroke:#3985c3;stroke-width:7.83411;stroke-linecap:butt;stroke-linejoin:miter;stroke-miterlimit:4;stroke-dasharray:none;stroke-opacity:1"
         id="path68" /><path
         d="m 4686.54,2242.03 482.5,-1328.151 57.07,1712.091 z"
         style="fill:#3f9acc;fill-opacity:1;fill-rule:nonzero;stroke:none"
         id="path70" /><path
         d="m 4686.54,2242.03 482.5,-1328.151 57.07,1712.091 z"
         style="fill:none;stroke:#3f9acc;stroke-width:7.83411;stroke-linecap:butt;stroke-linejoin:miter;stroke-miterlimit:4;stroke-dasharray:none;stroke-opacity:1"
         id="path72" /><path
         d="m 5967.23,5979.89 c -149.24,101.18 -294.93,199.96 -294.93,199.96 l 223.09,-1297.04 c 0,0 29.31,66.44 71.84,162.85 v 934.23"
         style="fill:#3d91ad;fill-opacity:1;fill-rule:nonzero;stroke:none"
         id="path74" /><path
         d="m 5967.23,5979.89 c -149.24,101.18 -294.93,199.96 -294.93,199.96 l 223.09,-1297.04 c 0,0 29.31,66.44 71.84,162.85 z"
         style="fill:none;stroke:#3d91ad;stroke-width:7.83411;stroke-linecap:butt;stroke-linejoin:miter;stroke-miterlimit:4;stroke-dasharray:none;stroke-opacity:1"
         id="path76" /><path
         d="m 2354.3,8421.79 c 284.12,-82.25 557.89,-161.49 557.89,-161.49 0,0 320.93,75.62 685.31,161.49 H 2354.3"
         style="fill:#31707b;fill-opacity:1;fill-rule:nonzero;stroke:none"
         id="path78" /><path
         d="m 2354.3,8421.79 c 284.12,-82.25 557.89,-161.49 557.89,-161.49 0,0 320.93,75.62 685.31,161.49 z"
         style="fill:none;stroke:#31707b;stroke-width:7.83411;stroke-linecap:butt;stroke-linejoin:miter;stroke-miterlimit:4;stroke-dasharray:none;stroke-opacity:1"
         id="path80" /><path
         d="M 5672.3,6179.85 4660.6,5998.26 5895.39,4882.81 Z"
         style="fill:#409aae;fill-opacity:1;fill-rule:nonzero;stroke:none"
         id="path82" /><path
         d="M 5672.3,6179.85 4660.6,5998.26 5895.39,4882.81 Z"
         style="fill:none;stroke:#409aae;stroke-width:7.83411;stroke-linecap:butt;stroke-linejoin:miter;stroke-miterlimit:4;stroke-dasharray:none;stroke-opacity:1"
         id="path84" /><path
         d="m 4660.6,5998.26 -46.68,-1322.97 1281.47,207.52 z"
         style="fill:#49b0c2;fill-opacity:1;fill-rule:nonzero;stroke:none"
         id="path86" /><path
         d="m 4660.6,5998.26 -46.68,-1322.97 1281.47,207.52 z"
         style="fill:none;stroke:#49b0c2;stroke-width:7.83411;stroke-linecap:butt;stroke-linejoin:miter;stroke-miterlimit:4;stroke-dasharray:none;stroke-opacity:1"
         id="path88" /><path
         d="m 4551.66,3207.03 674.45,-581.06 731.52,928.67 z"
         style="fill:#47afd6;fill-opacity:1;fill-rule:nonzero;stroke:none"
         id="path90" /><path
         d="m 4551.66,3207.03 674.45,-581.06 731.52,928.67 z"
         style="fill:none;stroke:#47afd6;stroke-width:7.83411;stroke-linecap:butt;stroke-linejoin:miter;stroke-miterlimit:4;stroke-dasharray:none;stroke-opacity:1"
         id="path92" /><path
         d="M 5895.39,4882.81 4613.92,4675.29 5957.63,3554.64 Z"
         style="fill:#4bb5d4;fill-opacity:1;fill-rule:nonzero;stroke:none"
         id="path94" /><path
         d="M 5895.39,4882.81 4613.92,4675.29 5957.63,3554.64 Z"
         style="fill:none;stroke:#4bb5d4;stroke-width:7.83411;stroke-linecap:butt;stroke-linejoin:miter;stroke-miterlimit:4;stroke-dasharray:none;stroke-opacity:1"
         id="path96" /><path
         d="m 4613.92,4675.29 -62.26,-1468.26 1405.97,347.61 z"
         style="fill:#4cbada;fill-opacity:1;fill-rule:nonzero;stroke:none"
         id="path98" /><path
         d="m 4613.92,4675.29 -62.26,-1468.26 1405.97,347.61 z"
         style="fill:none;stroke:#4cbada;stroke-width:7.83411;stroke-linecap:butt;stroke-linejoin:miter;stroke-miterlimit:4;stroke-dasharray:none;stroke-opacity:1"
         id="path100" /><path
         d="M 5521.83,7616.97 4660.6,5998.26 5672.3,6179.85 Z"
         style="fill:#378193;fill-opacity:1;fill-rule:nonzero;stroke:none"
         id="path102" /><path
         d="M 5521.83,7616.97 4660.6,5998.26 5672.3,6179.85 Z"
         style="fill:none;stroke:#378193;stroke-width:7.83411;stroke-linecap:butt;stroke-linejoin:miter;stroke-miterlimit:4;stroke-dasharray:none;stroke-opacity:1"
         id="path104" /><path
         d="M 4027.65,7253.79 4660.6,5998.26 5521.83,7616.97 Z"
         style="fill:#367e8d;fill-opacity:1;fill-rule:nonzero;stroke:none"
         id="path106" /><path
         d="M 4027.65,7253.79 4660.6,5998.26 5521.83,7616.97 Z"
         style="fill:none;stroke:#367e8d;stroke-width:7.83411;stroke-linecap:butt;stroke-linejoin:miter;stroke-miterlimit:4;stroke-dasharray:none;stroke-opacity:1"
         id="path108" /><path
         d="m 4836.54,8421.79 c 263.61,-309.6 685.29,-804.82 685.29,-804.82 0,0 39.24,495.22 63.76,804.82 h -749.05"
         style="fill:#224e6d;fill-opacity:1;fill-rule:nonzero;stroke:none"
         id="path110" /><path
         d="m 4836.54,8421.79 c 263.61,-309.6 685.29,-804.82 685.29,-804.82 0,0 39.24,495.22 63.76,804.82 z"
         style="fill:none;stroke:#224e6d;stroke-width:7.83411;stroke-linecap:butt;stroke-linejoin:miter;stroke-miterlimit:4;stroke-dasharray:none;stroke-opacity:1"
         id="path112" /><path
         d="m 4686.54,2242.03 -5.18,-1354.1 487.68,25.949 z"
         style="fill:#3b8dc6;fill-opacity:1;fill-rule:nonzero;stroke:none"
         id="path114" /><path
         d="m 4686.54,2242.03 -5.18,-1354.1 487.68,25.949 z"
         style="fill:none;stroke:#3b8dc6;stroke-width:7.83411;stroke-linecap:butt;stroke-linejoin:miter;stroke-miterlimit:4;stroke-dasharray:none;stroke-opacity:1"
         id="path116" /><path
         d="M 5402.57,5.12891 C 5367.91,140.012 5169.04,913.879 5169.04,913.879 L 4681.36,887.93 c 0,0 603.55,-750.121 710.3,-882.80109 h 10.91"
         style="fill:#3475bc;fill-opacity:1;fill-rule:nonzero;stroke:none"
         id="path118" /><path
         d="M 5402.57,5.12891 C 5367.91,140.012 5169.04,913.879 5169.04,913.879 L 4681.36,887.93 c 0,0 603.55,-750.121 710.3,-882.80109 z"
         style="fill:none;stroke:#3475bc;stroke-width:7.83411;stroke-linecap:butt;stroke-linejoin:miter;stroke-miterlimit:4;stroke-dasharray:none;stroke-opacity:1"
         id="path120" /><path
         d="m 4525.76,8421.79 c -172.13,-403.63 -498.11,-1168 -498.11,-1168 l 1494.18,363.18 c 0,0 -421.68,495.22 -685.29,804.82 h -310.78"
         style="fill:#2b6278;fill-opacity:1;fill-rule:nonzero;stroke:none"
         id="path122" /><path
         d="m 4525.76,8421.79 c -172.13,-403.63 -498.11,-1168 -498.11,-1168 l 1494.18,363.18 c 0,0 -421.68,495.22 -685.29,804.82 z"
         style="fill:none;stroke:#2b6278;stroke-width:7.83411;stroke-linecap:butt;stroke-linejoin:miter;stroke-miterlimit:4;stroke-dasharray:none;stroke-opacity:1"
         id="path124" /><path
         d="M 5391.66,5.12891 C 5284.91,137.809 4681.36,887.93 4681.36,887.93 L 4141.79,213.48 c 0,0 847.05,-152.7495 1155.37,-208.35109 h 94.5"
         style="fill:#3475bd;fill-opacity:1;fill-rule:nonzero;stroke:none"
         id="path126" /><path
         d="M 5391.66,5.12891 C 5284.91,137.809 4681.36,887.93 4681.36,887.93 L 4141.79,213.48 c 0,0 847.05,-152.7495 1155.37,-208.35109 z"
         style="fill:none;stroke:#3475bd;stroke-width:7.83411;stroke-linecap:butt;stroke-linejoin:miter;stroke-miterlimit:4;stroke-dasharray:none;stroke-opacity:1"
         id="path128" /><path
         d="m 4551.66,3207.03 134.88,-965 539.57,383.94 z"
         style="fill:#46b0d6;fill-opacity:1;fill-rule:nonzero;stroke:none"
         id="path130" /><path
         d="m 4551.66,3207.03 134.88,-965 539.57,383.94 z"
         style="fill:none;stroke:#46b0d6;stroke-width:7.83411;stroke-linecap:butt;stroke-linejoin:miter;stroke-miterlimit:4;stroke-dasharray:none;stroke-opacity:1"
         id="path132" /><path
         d="m 3503.65,3668.78 1048.01,-461.75 62.26,1468.26 z"
         style="fill:#56c8dc;fill-opacity:1;fill-rule:nonzero;stroke:none"
         id="path134" /><path
         d="m 3503.65,3668.78 1048.01,-461.75 62.26,1468.26 z"
         style="fill:none;stroke:#56c8dc;stroke-width:7.83411;stroke-linecap:butt;stroke-linejoin:miter;stroke-miterlimit:4;stroke-dasharray:none;stroke-opacity:1"
         id="path136" /><path
         d="M 3597.5,8421.79 C 3233.12,8335.92 2912.19,8260.3 2912.19,8260.3 L 4027.65,7253.79 c 0,0 325.98,764.37 498.11,1168 H 3597.5"
         style="fill:#326c79;fill-opacity:1;fill-rule:nonzero;stroke:none"
         id="path138" /><path
         d="M 3597.5,8421.79 C 3233.12,8335.92 2912.19,8260.3 2912.19,8260.3 L 4027.65,7253.79 c 0,0 325.98,764.37 498.11,1168 z"
         style="fill:none;stroke:#326c79;stroke-width:7.83411;stroke-linecap:butt;stroke-linejoin:miter;stroke-miterlimit:4;stroke-dasharray:none;stroke-opacity:1"
         id="path140" /><path
         d="M 4027.65,7253.79 3456.95,6890.62 4660.6,5998.26 Z"
         style="fill:#419398;fill-opacity:1;fill-rule:nonzero;stroke:none"
         id="path142" /><path
         d="M 4027.65,7253.79 3456.95,6890.62 4660.6,5998.26 Z"
         style="fill:none;stroke:#419398;stroke-width:7.83411;stroke-linecap:butt;stroke-linejoin:miter;stroke-miterlimit:4;stroke-dasharray:none;stroke-opacity:1"
         id="path144" /><path
         d="m 3456.95,6890.62 -88.2,-1188.08 1291.85,295.72 z"
         style="fill:#4baaa7;fill-opacity:1;fill-rule:nonzero;stroke:none"
         id="path146" /><path
         d="m 3456.95,6890.62 -88.2,-1188.08 1291.85,295.72 z"
         style="fill:none;stroke:#4baaa7;stroke-width:7.83411;stroke-linecap:butt;stroke-linejoin:miter;stroke-miterlimit:4;stroke-dasharray:none;stroke-opacity:1"
         id="path148" /><path
         d="M 3368.75,5702.54 4613.92,4675.29 4660.6,5998.26 Z"
         style="fill:#4db8be;fill-opacity:1;fill-rule:nonzero;stroke:none"
         id="path150" /><path
         d="M 3368.75,5702.54 4613.92,4675.29 4660.6,5998.26 Z"
         style="fill:none;stroke:#4db8be;stroke-width:7.83411;stroke-linecap:butt;stroke-linejoin:miter;stroke-miterlimit:4;stroke-dasharray:none;stroke-opacity:1"
         id="path152" /><path
         d="m 2647.6,1173.28 1494.19,-959.8 539.57,674.45 z"
         style="fill:#3c90c8;fill-opacity:1;fill-rule:nonzero;stroke:none"
         id="path154" /><path
         d="m 2647.6,1173.28 1494.19,-959.8 539.57,674.45 z"
         style="fill:none;stroke:#3c90c8;stroke-width:7.83411;stroke-linecap:butt;stroke-linejoin:miter;stroke-miterlimit:4;stroke-dasharray:none;stroke-opacity:1"
         id="path156" /><path
         d="m 2647.6,1173.28 2033.76,-285.35 5.18,1354.1 z"
         style="fill:#419ecd;fill-opacity:1;fill-rule:nonzero;stroke:none"
         id="path158" /><path
         d="m 2647.6,1173.28 2033.76,-285.35 5.18,1354.1 z"
         style="fill:none;stroke:#419ecd;stroke-width:7.83411;stroke-linecap:butt;stroke-linejoin:miter;stroke-miterlimit:4;stroke-dasharray:none;stroke-opacity:1"
         id="path160" /><path
         d="M 2964.07,2615.59 2647.6,1173.28 4686.54,2242.03 Z"
         style="fill:#49bad8;fill-opacity:1;fill-rule:nonzero;stroke:none"
         id="path162" /><path
         d="M 2964.07,2615.59 2647.6,1173.28 4686.54,2242.03 Z"
         style="fill:none;stroke:#49bad8;stroke-width:7.83411;stroke-linecap:butt;stroke-linejoin:miter;stroke-miterlimit:4;stroke-dasharray:none;stroke-opacity:1"
         id="path164" /><path
         d="M 4551.66,3207.03 2964.07,2615.59 4686.54,2242.03 Z"
         style="fill:#4bbedb;fill-opacity:1;fill-rule:nonzero;stroke:none"
         id="path166" /><path
         d="M 4551.66,3207.03 2964.07,2615.59 4686.54,2242.03 Z"
         style="fill:none;stroke:#4bbedb;stroke-width:7.83411;stroke-linecap:butt;stroke-linejoin:miter;stroke-miterlimit:4;stroke-dasharray:none;stroke-opacity:1"
         id="path168" /><path
         d="m 3073.02,4592.27 430.63,-923.49 1110.27,1006.51 z"
         style="fill:#62cbdb;fill-opacity:1;fill-rule:nonzero;stroke:none"
         id="path170" /><path
         d="m 3073.02,4592.27 430.63,-923.49 1110.27,1006.51 z"
         style="fill:none;stroke:#62cbdb;stroke-width:7.83411;stroke-linecap:butt;stroke-linejoin:miter;stroke-miterlimit:4;stroke-dasharray:none;stroke-opacity:1"
         id="path172" /><path
         d="m 3368.75,5702.54 -295.73,-1110.27 1540.9,83.02 z"
         style="fill:#5cc9cd;fill-opacity:1;fill-rule:nonzero;stroke:none"
         id="path174" /><path
         d="m 3368.75,5702.54 -295.73,-1110.27 1540.9,83.02 z"
         style="fill:none;stroke:#5cc9cd;stroke-width:7.83411;stroke-linecap:butt;stroke-linejoin:miter;stroke-miterlimit:4;stroke-dasharray:none;stroke-opacity:1"
         id="path176" /><path
         d="M 3503.65,3668.78 2964.07,2615.59 4551.66,3207.03 Z"
         style="fill:#58c8dc;fill-opacity:1;fill-rule:nonzero;stroke:none"
         id="path178" /><path
         d="M 3503.65,3668.78 2964.07,2615.59 4551.66,3207.03 Z"
         style="fill:none;stroke:#58c8dc;stroke-width:7.83411;stroke-linecap:butt;stroke-linejoin:miter;stroke-miterlimit:4;stroke-dasharray:none;stroke-opacity:1"
         id="path180" /><path
         d="m 17.6328,8421.79 c 0,-59.4 0,-106.64 0,-106.64 163.5392,27.48 394.8712,66.34 634.7502,106.64 H 17.6328"
         style="fill:#4d8882;fill-opacity:1;fill-rule:nonzero;stroke:none"
         id="path182" /><path
         d="m 17.6328,8421.79 c 0,-59.4 0,-106.64 0,-106.64 163.5392,27.48 394.8712,66.34 634.7502,106.64 z"
         style="fill:none;stroke:#4d8882;stroke-width:7.83411;stroke-linecap:butt;stroke-linejoin:miter;stroke-miterlimit:4;stroke-dasharray:none;stroke-opacity:1"
         id="path184" /><path
         d="M 3683.11,5.12891 C 3940.08,121.859 4141.79,213.48 4141.79,213.48 l -1494.19,959.8 c 0,0 -14.92,-679.909 -25.64,-1168.15109 h 1061.15"
         style="fill:#3c91c8;fill-opacity:1;fill-rule:nonzero;stroke:none"
         id="path186" /><path
         d="M 3683.11,5.12891 C 3940.08,121.859 4141.79,213.48 4141.79,213.48 l -1494.19,959.8 c 0,0 -14.92,-679.909 -25.64,-1168.15109 z"
         style="fill:none;stroke:#3c91c8;stroke-width:7.83411;stroke-linecap:butt;stroke-linejoin:miter;stroke-miterlimit:4;stroke-dasharray:none;stroke-opacity:1"
         id="path188" /><path
         d="m 2912.19,8260.3 544.76,-1369.68 570.7,363.17 z"
         style="fill:#3e8488;fill-opacity:1;fill-rule:nonzero;stroke:none"
         id="path190" /><path
         d="m 2912.19,8260.3 544.76,-1369.68 570.7,363.17 z"
         style="fill:none;stroke:#3e8488;stroke-width:7.83411;stroke-linecap:butt;stroke-linejoin:miter;stroke-miterlimit:4;stroke-dasharray:none;stroke-opacity:1"
         id="path192" /><path
         d="M 2621.96,5.12891 C 2632.68,493.371 2647.6,1173.28 2647.6,1173.28 L 1962.76,727.102 c 0,0 207.17,-386.161 387.33,-721.97309 h 271.87"
         style="fill:#419ed0;fill-opacity:1;fill-rule:nonzero;stroke:none"
         id="path194" /><path
         d="M 2621.96,5.12891 C 2632.68,493.371 2647.6,1173.28 2647.6,1173.28 L 1962.76,727.102 c 0,0 207.17,-386.161 387.33,-721.97309 z"
         style="fill:none;stroke:#419ed0;stroke-width:7.83411;stroke-linecap:butt;stroke-linejoin:miter;stroke-miterlimit:4;stroke-dasharray:none;stroke-opacity:1"
         id="path196" /><path
         d="m 2305.18,2112.35 342.42,-939.07 316.47,1442.31 z"
         style="fill:#50c6dd;fill-opacity:1;fill-rule:nonzero;stroke:none"
         id="path198" /><path
         d="m 2305.18,2112.35 342.42,-939.07 316.47,1442.31 z"
         style="fill:none;stroke:#50c6dd;stroke-width:7.83411;stroke-linecap:butt;stroke-linejoin:miter;stroke-miterlimit:4;stroke-dasharray:none;stroke-opacity:1"
         id="path200" /><path
         d="m 2912.19,8260.3 -752.27,-1281.48 1297.03,-88.2 z"
         style="fill:#4a918e;fill-opacity:1;fill-rule:nonzero;stroke:none"
         id="path202" /><path
         d="m 2912.19,8260.3 -752.27,-1281.48 1297.03,-88.2 z"
         style="fill:none;stroke:#4a918e;stroke-width:7.83411;stroke-linecap:butt;stroke-linejoin:miter;stroke-miterlimit:4;stroke-dasharray:none;stroke-opacity:1"
         id="path204" /><path
         d="m 2294.8,6019.01 1073.95,-316.47 88.2,1188.08 z"
         style="fill:#56b8aa;fill-opacity:1;fill-rule:nonzero;stroke:none"
         id="path206" /><path
         d="m 2294.8,6019.01 1073.95,-316.47 88.2,1188.08 z"
         style="fill:none;stroke:#56b8aa;stroke-width:7.83411;stroke-linecap:butt;stroke-linejoin:miter;stroke-miterlimit:4;stroke-dasharray:none;stroke-opacity:1"
         id="path208" /><path
         d="m 2159.92,6978.82 134.88,-959.81 1162.15,871.61 z"
         style="fill:#56aea1;fill-opacity:1;fill-rule:nonzero;stroke:none"
         id="path210" /><path
         d="m 2159.92,6978.82 134.88,-959.81 1162.15,871.61 z"
         style="fill:none;stroke:#56aea1;stroke-width:7.83411;stroke-linecap:butt;stroke-linejoin:miter;stroke-miterlimit:4;stroke-dasharray:none;stroke-opacity:1"
         id="path212" /><path
         d="M 3073.02,4592.27 2071.72,4021.59 3503.65,3668.78 Z"
         style="fill:#72d0dc;fill-opacity:1;fill-rule:nonzero;stroke:none"
         id="path214" /><path
         d="M 3073.02,4592.27 2071.72,4021.59 3503.65,3668.78 Z"
         style="fill:none;stroke:#72d0dc;stroke-width:7.83411;stroke-linecap:butt;stroke-linejoin:miter;stroke-miterlimit:4;stroke-dasharray:none;stroke-opacity:1"
         id="path216" /><path
         d="m 2071.72,4021.59 892.35,-1406 539.58,1053.19 z"
         style="fill:#6acedb;fill-opacity:1;fill-rule:nonzero;stroke:none"
         id="path218" /><path
         d="m 2071.72,4021.59 892.35,-1406 539.58,1053.19 z"
         style="fill:none;stroke:#6acedb;stroke-width:7.83411;stroke-linecap:butt;stroke-linejoin:miter;stroke-miterlimit:4;stroke-dasharray:none;stroke-opacity:1"
         id="path220" /><path
         d="m 2294.8,6019.01 778.22,-1426.74 295.73,1110.27 z"
         style="fill:#65cbc3;fill-opacity:1;fill-rule:nonzero;stroke:none"
         id="path222" /><path
         d="m 2294.8,6019.01 778.22,-1426.74 295.73,1110.27 z"
         style="fill:none;stroke:#65cbc3;stroke-width:7.83411;stroke-linecap:butt;stroke-linejoin:miter;stroke-miterlimit:4;stroke-dasharray:none;stroke-opacity:1"
         id="path224" /><path
         d="M 652.383,8421.79 C 412.504,8381.49 181.172,8342.63 17.6328,8315.15 v -36.9 c 298.8082,3.07 777.7932,7.99 777.7932,7.99 0,0 190.847,64.68 399.994,135.55 H 652.383"
         style="fill:#4d8985;fill-opacity:1;fill-rule:nonzero;stroke:none"
         id="path226" /><path
         d="M 652.383,8421.79 C 412.504,8381.49 181.172,8342.63 17.6328,8315.15 v -36.9 c 298.8082,3.07 777.7932,7.99 777.7932,7.99 0,0 190.847,64.68 399.994,135.55 z"
         style="fill:none;stroke:#4d8985;stroke-width:7.83411;stroke-linecap:butt;stroke-linejoin:miter;stroke-miterlimit:4;stroke-dasharray:none;stroke-opacity:1"
         id="path228" /><path
         d="M 2294.8,6019.01 1884.94,4773.86 3073.02,4592.27 Z"
         style="fill:#73d0cb;fill-opacity:1;fill-rule:nonzero;stroke:none"
         id="path230" /><path
         d="M 2294.8,6019.01 1884.94,4773.86 3073.02,4592.27 Z"
         style="fill:none;stroke:#73d0cb;stroke-width:7.83411;stroke-linecap:butt;stroke-linejoin:miter;stroke-miterlimit:4;stroke-dasharray:none;stroke-opacity:1"
         id="path232" /><path
         d="m 1884.94,4773.86 186.78,-752.27 1001.3,570.68 z"
         style="fill:#7ad3d7;fill-opacity:1;fill-rule:nonzero;stroke:none"
         id="path234" /><path
         d="m 1884.94,4773.86 186.78,-752.27 1001.3,570.68 z"
         style="fill:none;stroke:#7ad3d7;stroke-width:7.83411;stroke-linecap:butt;stroke-linejoin:miter;stroke-miterlimit:4;stroke-dasharray:none;stroke-opacity:1"
         id="path236" /><path
         d="m 1777.28,8421.79 c 112.26,-423.37 382.64,-1442.97 382.64,-1442.97 l 752.27,1281.48 c 0,0 -273.77,79.24 -557.89,161.49 h -577.02"
         style="fill:#488685;fill-opacity:1;fill-rule:nonzero;stroke:none"
         id="path238" /><path
         d="m 1777.28,8421.79 c 112.26,-423.37 382.64,-1442.97 382.64,-1442.97 l 752.27,1281.48 c 0,0 -273.77,79.24 -557.89,161.49 z"
         style="fill:none;stroke:#488685;stroke-width:7.83411;stroke-linecap:butt;stroke-linejoin:miter;stroke-miterlimit:4;stroke-dasharray:none;stroke-opacity:1"
         id="path240" /><path
         d="m 2071.72,4021.59 233.46,-1909.24 658.89,503.24 z"
         style="fill:#67cddb;fill-opacity:1;fill-rule:nonzero;stroke:none"
         id="path242" /><path
         d="m 2071.72,4021.59 233.46,-1909.24 658.89,503.24 z"
         style="fill:none;stroke:#67cddb;stroke-width:7.83411;stroke-linecap:butt;stroke-linejoin:miter;stroke-miterlimit:4;stroke-dasharray:none;stroke-opacity:1"
         id="path244" /><path
         d="M 1915.32,5.12891 C 1670.12,176.66 1454.33,327.621 1454.33,327.621 c 0,0 -322.81,-165.723 -628.154,-322.49209 H 1915.32"
         style="fill:#3b95bf;fill-opacity:1;fill-rule:nonzero;stroke:none"
         id="path246" /><path
         d="M 1915.32,5.12891 C 1670.12,176.66 1454.33,327.621 1454.33,327.621 c 0,0 -322.81,-165.723 -628.154,-322.49209 z"
         style="fill:none;stroke:#3b95bf;stroke-width:7.83411;stroke-linecap:butt;stroke-linejoin:miter;stroke-miterlimit:4;stroke-dasharray:none;stroke-opacity:1"
         id="path248" /><path
         d="M 2350.09,5.12891 C 2169.93,340.941 1962.76,727.102 1962.76,727.102 L 1454.33,327.621 c 0,0 215.79,-150.961 460.99,-322.49209 h 434.77"
         style="fill:#3f9aca;fill-opacity:1;fill-rule:nonzero;stroke:none"
         id="path250" /><path
         d="M 2350.09,5.12891 C 2169.93,340.941 1962.76,727.102 1962.76,727.102 L 1454.33,327.621 c 0,0 215.79,-150.961 460.99,-322.49209 z"
         style="fill:none;stroke:#3f9aca;stroke-width:7.83411;stroke-linecap:butt;stroke-linejoin:miter;stroke-miterlimit:4;stroke-dasharray:none;stroke-opacity:1"
         id="path252" /><path
         d="M 2305.18,2112.35 1962.76,727.102 2647.6,1173.28 Z"
         style="fill:#48b8d8;fill-opacity:1;fill-rule:nonzero;stroke:none"
         id="path254" /><path
         d="M 2305.18,2112.35 1962.76,727.102 2647.6,1173.28 Z"
         style="fill:none;stroke:#48b8d8;stroke-width:7.83411;stroke-linecap:butt;stroke-linejoin:miter;stroke-miterlimit:4;stroke-dasharray:none;stroke-opacity:1"
         id="path256" /><path
         d="M 2071.72,4021.59 546.395,3897.06 2305.18,2112.35 Z"
         style="fill:#7cd4de;fill-opacity:1;fill-rule:nonzero;stroke:none"
         id="path258" /><path
         d="M 2071.72,4021.59 546.395,3897.06 2305.18,2112.35 Z"
         style="fill:none;stroke:#7cd4de;stroke-width:7.83411;stroke-linecap:butt;stroke-linejoin:miter;stroke-miterlimit:4;stroke-dasharray:none;stroke-opacity:1"
         id="path260" /><path
         d="M 1634.46,8421.79 C 1436.55,8044.22 997.77,7207.1 997.77,7207.1 l 1162.15,-228.28 c 0,0 -270.38,1019.6 -382.64,1442.97 h -142.82"
         style="fill:#56988f;fill-opacity:1;fill-rule:nonzero;stroke:none"
         id="path262" /><path
         d="M 1634.46,8421.79 C 1436.55,8044.22 997.77,7207.1 997.77,7207.1 l 1162.15,-228.28 c 0,0 -270.38,1019.6 -382.64,1442.97 z"
         style="fill:none;stroke:#56988f;stroke-width:7.83411;stroke-linecap:butt;stroke-linejoin:miter;stroke-miterlimit:4;stroke-dasharray:none;stroke-opacity:1"
         id="path264" /><path
         d="M 665.723,5853 1884.94,4773.86 2294.8,6019.01 Z"
         style="fill:#79d1c3;fill-opacity:1;fill-rule:nonzero;stroke:none"
         id="path266" /><path
         d="M 665.723,5853 1884.94,4773.86 2294.8,6019.01 Z"
         style="fill:none;stroke:#79d1c3;stroke-width:7.83411;stroke-linecap:butt;stroke-linejoin:miter;stroke-miterlimit:4;stroke-dasharray:none;stroke-opacity:1"
         id="path268" /><path
         d="M 2159.92,6978.82 997.77,7207.1 2294.8,6019.01 Z"
         style="fill:#60b4a2;fill-opacity:1;fill-rule:nonzero;stroke:none"
         id="path270" /><path
         d="M 2159.92,6978.82 997.77,7207.1 2294.8,6019.01 Z"
         style="fill:none;stroke:#60b4a2;stroke-width:7.83411;stroke-linecap:butt;stroke-linejoin:miter;stroke-miterlimit:4;stroke-dasharray:none;stroke-opacity:1"
         id="path272" /><path
         d="M 997.77,7207.1 665.723,5853 2294.8,6019.01 Z"
         style="fill:#6ec9ae;fill-opacity:1;fill-rule:nonzero;stroke:none"
         id="path274" /><path
         d="M 997.77,7207.1 665.723,5853 2294.8,6019.01 Z"
         style="fill:none;stroke:#6ec9ae;stroke-width:7.83411;stroke-linecap:butt;stroke-linejoin:miter;stroke-miterlimit:4;stroke-dasharray:none;stroke-opacity:1"
         id="path276" /><path
         d="m 214.359,2252.42 793.781,-871.61 1297.04,731.54 z"
         style="fill:#5ecadc;fill-opacity:1;fill-rule:nonzero;stroke:none"
         id="path278" /><path
         d="m 214.359,2252.42 793.781,-871.61 1297.04,731.54 z"
         style="fill:none;stroke:#5ecadc;stroke-width:7.83411;stroke-linecap:butt;stroke-linejoin:miter;stroke-miterlimit:4;stroke-dasharray:none;stroke-opacity:1"
         id="path280" /><path
         d="M 546.395,3897.06 214.359,2252.42 2305.18,2112.35 Z"
         style="fill:#75d1dd;fill-opacity:1;fill-rule:nonzero;stroke:none"
         id="path282" /><path
         d="M 546.395,3897.06 214.359,2252.42 2305.18,2112.35 Z"
         style="fill:none;stroke:#75d1dd;stroke-width:7.83411;stroke-linecap:butt;stroke-linejoin:miter;stroke-miterlimit:4;stroke-dasharray:none;stroke-opacity:1"
         id="path284" /><path
         d="M 1008.14,1380.81 1962.76,727.102 2305.18,2112.35 Z"
         style="fill:#4ec2dd;fill-opacity:1;fill-rule:nonzero;stroke:none"
         id="path286" /><path
         d="M 1008.14,1380.81 1962.76,727.102 2305.18,2112.35 Z"
         style="fill:none;stroke:#4ec2dd;stroke-width:7.83411;stroke-linecap:butt;stroke-linejoin:miter;stroke-miterlimit:4;stroke-dasharray:none;stroke-opacity:1"
         id="path288" /><path
         d="M 1195.42,8421.79 C 986.273,8350.92 795.426,8286.24 795.426,8286.24 L 997.77,7207.1 c 0,0 438.78,837.12 636.69,1214.69 h -439.04"
         style="fill:#548e87;fill-opacity:1;fill-rule:nonzero;stroke:none"
         id="path290" /><path
         d="M 1195.42,8421.79 C 986.273,8350.92 795.426,8286.24 795.426,8286.24 L 997.77,7207.1 c 0,0 438.78,837.12 636.69,1214.69 z"
         style="fill:none;stroke:#548e87;stroke-width:7.83411;stroke-linecap:butt;stroke-linejoin:miter;stroke-miterlimit:4;stroke-dasharray:none;stroke-opacity:1"
         id="path292" /><path
         d="M 665.723,5853 561.957,5251.17 1884.94,4773.86 Z"
         style="fill:#85d6ca;fill-opacity:1;fill-rule:nonzero;stroke:none"
         id="path294" /><path
         d="M 665.723,5853 561.957,5251.17 1884.94,4773.86 Z"
         style="fill:none;stroke:#85d6ca;stroke-width:7.83411;stroke-linecap:butt;stroke-linejoin:miter;stroke-miterlimit:4;stroke-dasharray:none;stroke-opacity:1"
         id="path296" /><path
         d="M 1884.94,4773.86 546.395,3897.06 2071.72,4021.59 Z"
         style="fill:#8ad8df;fill-opacity:1;fill-rule:nonzero;stroke:none"
         id="path298" /><path
         d="M 1884.94,4773.86 546.395,3897.06 2071.72,4021.59 Z"
         style="fill:none;stroke:#8ad8df;stroke-width:7.83411;stroke-linecap:butt;stroke-linejoin:miter;stroke-miterlimit:4;stroke-dasharray:none;stroke-opacity:1"
         id="path300" /><path
         d="M 1008.14,1380.81 1454.33,327.621 1962.76,727.102 Z"
         style="fill:#49b4d7;fill-opacity:1;fill-rule:nonzero;stroke:none"
         id="path302" /><path
         d="M 1008.14,1380.81 1454.33,327.621 1962.76,727.102 Z"
         style="fill:none;stroke:#49b4d7;stroke-width:7.83411;stroke-linecap:butt;stroke-linejoin:miter;stroke-miterlimit:4;stroke-dasharray:none;stroke-opacity:1"
         id="path304" /><path
         d="M 561.957,5251.17 546.395,3897.06 1884.94,4773.86 Z"
         style="fill:#8bd8d7;fill-opacity:1;fill-rule:nonzero;stroke:none"
         id="path306" /><path
         d="M 561.957,5251.17 546.395,3897.06 1884.94,4773.86 Z"
         style="fill:none;stroke:#8bd8d7;stroke-width:7.83411;stroke-linecap:butt;stroke-linejoin:miter;stroke-miterlimit:4;stroke-dasharray:none;stroke-opacity:1"
         id="path308" /><path
         d="M 826.176,5.12891 C 1131.52,161.898 1454.33,327.621 1454.33,327.621 L 1008.14,1380.81 c 0,0 -393.417,-906.58 -596.988,-1375.68109 h 415.024"
         style="fill:#47aed6;fill-opacity:1;fill-rule:nonzero;stroke:none"
         id="path310" /><path
         d="M 826.176,5.12891 C 1131.52,161.898 1454.33,327.621 1454.33,327.621 L 1008.14,1380.81 c 0,0 -393.417,-906.58 -596.988,-1375.68109 z"
         style="fill:none;stroke:#47aed6;stroke-width:7.83411;stroke-linecap:butt;stroke-linejoin:miter;stroke-miterlimit:4;stroke-dasharray:none;stroke-opacity:1"
         id="path312" /><path
         d="M 17.6328,4420.05 C 271.563,4168.89 546.395,3897.06 546.395,3897.06 l 15.562,1354.11 c 0,0 -284.336,-122.29 -544.3242,-234.12 v -597"
         style="fill:#92dad7;fill-opacity:1;fill-rule:nonzero;stroke:none"
         id="path314" /><path
         d="M 17.6328,4420.05 C 271.563,4168.89 546.395,3897.06 546.395,3897.06 l 15.562,1354.11 c 0,0 -284.336,-122.29 -544.3242,-234.12 z"
         style="fill:none;stroke:#92dad7;stroke-width:7.83411;stroke-linecap:butt;stroke-linejoin:miter;stroke-miterlimit:4;stroke-dasharray:none;stroke-opacity:1"
         id="path316" /><path
         d="M 17.6328,6378.4 C 338.609,6118.19 665.723,5853 665.723,5853 L 997.77,7207.1 c 0,0 -531.262,-110.75 -980.1372,-204.33 V 6378.4"
         style="fill:#72c4a7;fill-opacity:1;fill-rule:nonzero;stroke:none"
         id="path318" /><path
         d="M 17.6328,6378.4 C 338.609,6118.19 665.723,5853 665.723,5853 L 997.77,7207.1 c 0,0 -531.262,-110.75 -980.1372,-204.33 z"
         style="fill:none;stroke:#72c4a7;stroke-width:7.83411;stroke-linecap:butt;stroke-linejoin:miter;stroke-miterlimit:4;stroke-dasharray:none;stroke-opacity:1"
         id="path320" /><path
         d="M 17.6328,8069.95 C 370.383,7759.41 997.77,7207.1 997.77,7207.1 L 795.426,8286.24 c 0,0 -478.985,-4.92 -777.7932,-7.99 v -208.3"
         style="fill:#5d958b;fill-opacity:1;fill-rule:nonzero;stroke:none"
         id="path322" /><path
         d="M 17.6328,8069.95 C 370.383,7759.41 997.77,7207.1 997.77,7207.1 L 795.426,8286.24 c 0,0 -478.985,-4.92 -777.7932,-7.99 z"
         style="fill:none;stroke:#5d958b;stroke-width:7.83411;stroke-linecap:butt;stroke-linejoin:miter;stroke-miterlimit:4;stroke-dasharray:none;stroke-opacity:1"
         id="path324" /><path
         d="M 17.6328,7002.77 C 466.508,7096.35 997.77,7207.1 997.77,7207.1 c 0,0 -627.387,552.31 -980.1372,862.85 V 7002.77"
         style="fill:#68a694;fill-opacity:1;fill-rule:nonzero;stroke:none"
         id="path326" /><path
         d="M 17.6328,7002.77 C 466.508,7096.35 997.77,7207.1 997.77,7207.1 c 0,0 -627.387,552.31 -980.1372,862.85 z"
         style="fill:none;stroke:#68a694;stroke-width:7.83411;stroke-linecap:butt;stroke-linejoin:miter;stroke-miterlimit:4;stroke-dasharray:none;stroke-opacity:1"
         id="path328" /><path
         d="M 411.152,5.12891 C 614.723,474.23 1008.14,1380.81 1008.14,1380.81 c 0,0 -574.617,-50.7 -990.5072,-87.4 V 333.34 C 71.8438,214.391 123.578,100.891 167.227,5.12891 h 243.925"
         style="fill:#4dbbda;fill-opacity:1;fill-rule:nonzero;stroke:none"
         id="path330" /><path
         d="M 411.152,5.12891 C 614.723,474.23 1008.14,1380.81 1008.14,1380.81 c 0,0 -574.617,-50.7 -990.5072,-87.4 V 333.34 C 71.8438,214.391 123.578,100.891 167.227,5.12891 Z"
         style="fill:none;stroke:#4dbbda;stroke-width:7.83411;stroke-linecap:butt;stroke-linejoin:miter;stroke-miterlimit:4;stroke-dasharray:none;stroke-opacity:1"
         id="path332" /><path
         d="m 17.6328,1293.41 c 415.8902,36.7 990.5072,87.4 990.5072,87.4 l -793.781,871.61 c 0,0 -87.558,-141.27 -196.7262,-317.41 v -641.6"
         style="fill:#5ecadb;fill-opacity:1;fill-rule:nonzero;stroke:none"
         id="path334" /><path
         d="m 17.6328,1293.41 c 415.8902,36.7 990.5072,87.4 990.5072,87.4 l -793.781,871.61 c 0,0 -87.558,-141.27 -196.7262,-317.41 z"
         style="fill:none;stroke:#5ecadb;stroke-width:7.83411;stroke-linecap:butt;stroke-linejoin:miter;stroke-miterlimit:4;stroke-dasharray:none;stroke-opacity:1"
         id="path336" /><path
         d="M 17.6328,2614.18 C 130.309,2406.99 214.359,2252.42 214.359,2252.42 l 332.036,1644.64 c 0,0 -260.641,-52.61 -528.7622,-106.74 V 2614.18"
         style="fill:#8ad8e0;fill-opacity:1;fill-rule:nonzero;stroke:none"
         id="path338" /><path
         d="M 17.6328,2614.18 C 130.309,2406.99 214.359,2252.42 214.359,2252.42 l 332.036,1644.64 c 0,0 -260.641,-52.61 -528.7622,-106.74 z"
         style="fill:none;stroke:#8ad8e0;stroke-width:7.83411;stroke-linecap:butt;stroke-linejoin:miter;stroke-miterlimit:4;stroke-dasharray:none;stroke-opacity:1"
         id="path340" /><path
         d="M 17.6328,5920.39 C 341.746,5886.69 665.723,5853 665.723,5853 c 0,0 -327.114,265.19 -648.0902,525.4 v -458.01"
         style="fill:#7cd1ae;fill-opacity:1;fill-rule:nonzero;stroke:none"
         id="path342" /><path
         d="M 17.6328,5920.39 C 341.746,5886.69 665.723,5853 665.723,5853 c 0,0 -327.114,265.19 -648.0902,525.4 z"
         style="fill:none;stroke:#7cd1ae;stroke-width:7.83411;stroke-linecap:butt;stroke-linejoin:miter;stroke-miterlimit:4;stroke-dasharray:none;stroke-opacity:1"
         id="path344" /><path
         d="M 17.6328,5587.23 C 297.527,5414.43 561.957,5251.17 561.957,5251.17 L 665.723,5853 c 0,0 -323.977,33.69 -648.0902,67.39 v -333.16"
         style="fill:#85d5c0;fill-opacity:1;fill-rule:nonzero;stroke:none"
         id="path346" /><path
         d="M 17.6328,5587.23 C 297.527,5414.43 561.957,5251.17 561.957,5251.17 L 665.723,5853 c 0,0 -323.977,33.69 -648.0902,67.39 z"
         style="fill:none;stroke:#85d5c0;stroke-width:7.83411;stroke-linecap:butt;stroke-linejoin:miter;stroke-miterlimit:4;stroke-dasharray:none;stroke-opacity:1"
         id="path348" /><path
         d="M 167.227,5.12891 C 123.578,100.891 71.8438,214.391 17.6328,333.34 c 0,0 0,-161.75 0,-328.21109 H 167.227"
         style="fill:#45a8cd;fill-opacity:1;fill-rule:nonzero;stroke:none"
         id="path350" /><path
         d="M 167.227,5.12891 C 123.578,100.891 71.8438,214.391 17.6328,333.34 c 0,0 0,-161.75 0,-328.21109 z"
         style="fill:none;stroke:#45a8cd;stroke-width:7.83411;stroke-linecap:butt;stroke-linejoin:miter;stroke-miterlimit:4;stroke-dasharray:none;stroke-opacity:1"
         id="path352" /><path
         d="m 17.6328,3790.32 c 268.1212,54.13 528.7622,106.74 528.7622,106.74 0,0 -274.832,271.83 -528.7622,522.99 v -629.73"
         style="fill:#96dcdd;fill-opacity:1;fill-rule:nonzero;stroke:none"
         id="path354" /><path
         d="m 17.6328,3790.32 c 268.1212,54.13 528.7622,106.74 528.7622,106.74 0,0 -274.832,271.83 -528.7622,522.99 z"
         style="fill:none;stroke:#96dcdd;stroke-width:7.83411;stroke-linecap:butt;stroke-linejoin:miter;stroke-miterlimit:4;stroke-dasharray:none;stroke-opacity:1"
         id="path356" /><path
         d="m 17.6328,5017.05 c 259.9882,111.83 544.3242,234.12 544.3242,234.12 0,0 -264.43,163.26 -544.3242,336.06 v -570.18"
         style="fill:#8dd8c8;fill-opacity:1;fill-rule:nonzero;stroke:none"
         id="path358" /><path
         d="m 17.6328,5017.05 c 259.9882,111.83 544.3242,234.12 544.3242,234.12 0,0 -264.43,163.26 -544.3242,336.06 z"
         style="fill:none;stroke:#8dd8c8;stroke-width:7.83411;stroke-linecap:butt;stroke-linejoin:miter;stroke-miterlimit:4;stroke-dasharray:none;stroke-opacity:1"
         id="path360" /><path
         d="m 17.6328,1935.01 c 109.1682,176.14 196.7262,317.41 196.7262,317.41 0,0 -78.828,-16.5 -196.7262,-41.16 v -276.25"
         style="fill:#62cbd6;fill-opacity:1;fill-rule:nonzero;stroke:none"
         id="path362" /><path
         d="m 17.6328,1935.01 c 109.1682,176.14 196.7262,317.41 196.7262,317.41 0,0 -78.828,-16.5 -196.7262,-41.16 z"
         style="fill:none;stroke:#62cbd6;stroke-width:7.83411;stroke-linecap:butt;stroke-linejoin:miter;stroke-miterlimit:4;stroke-dasharray:none;stroke-opacity:1"
         id="path364" /><path
         d="m 17.6328,2211.26 c 117.8982,24.66 196.7262,41.16 196.7262,41.16 0,0 -84.05,154.57 -196.7262,361.76 v -402.92"
         style="fill:#78d2d6;fill-opacity:1;fill-rule:nonzero;stroke:none"
         id="path366" /><path
         d="m 17.6328,2211.26 c 117.8982,24.66 196.7262,41.16 196.7262,41.16 0,0 -84.05,154.57 -196.7262,361.76 z"
         style="fill:none;stroke:#78d2d6;stroke-width:7.83411;stroke-linecap:butt;stroke-linejoin:miter;stroke-miterlimit:4;stroke-dasharray:none;stroke-opacity:1"
         id="path368" /></g></g></svg>
